<svg xmlns="http://www.w3.org/2000/svg" width="407" height="407" viewBox="0 0 407 407"><path fill="#D0D0D0" d="M344.5 73.7A335.8 335.8 0 0 0 261.7 48c-.5 0-1 .2-1.3.7-3.6 6.3-7.6 14.6-10.3 21.1a310 310 0 0 0-93 0 214 214 0 0 0-10.6-21.1c-.2-.5-.8-.8-1.3-.7a334.9 334.9 0 0 0-83.4 26.2C9 152.9-5.4 229.8 1.7 305.7c0 .3.2.7.5 1a336 336 0 0 0 101.6 51.2c.6.2 1.1 0 1.5-.4a241 241 0 0 0 20.8-33.8c.3-.7 0-1.5-.7-1.8a220.7 220.7 0 0 1-31.8-15.1c-.8-.5-.9-1.6-.1-2.2l6.3-5c.4-.2.9-.3 1.3-.1a240.8 240.8 0 0 0 204.5 0c.5-.2 1-.2 1.4.2l6.3 5c.7.5.7 1.6-.1 2-10.2 6-20.7 11-31.8 15.2-.7.2-1 1-.7 1.8 6.1 11.8 13.1 23 20.8 33.8.3.4.9.6 1.4.4 33.3-10.2 67-25.7 101.8-51.3.3-.2.5-.6.5-1a340.8 340.8 0 0 0-60.7-231.9M136 259.5c-20 0-36.6-18.4-36.6-41s16.2-41 36.6-41c20.5 0 36.9 18.5 36.6 41 0 22.6-16.2 41-36.6 41m135.2 0c-20 0-36.5-18.4-36.5-41s16.2-41 36.5-41c20.6 0 37 18.5 36.6 41 0 22.6-16 41-36.6 41"/></svg>