<svg xmlns="http://www.w3.org/2000/svg" width="407" height="407" viewBox="0 0 407 407"><path fill="#D0D0D0" d="M200.9 4C87 4 0 90.7 0 204.8c0 91.3 57.3 169.4 139 196.9 10.6 1.9 14.3-4.6 14.3-10 0-5.1-.3-33.2-.3-50.5 0 0-57.4 12.3-69.5-24.6 0 0-9.3-23.9-22.8-30 0 0-18.8-13 1.3-12.7 0 0 20.5 1.6 31.7 21.2 18 31.8 48 22.6 59.8 17.2a45.8 45.8 0 0 1 13.2-27.7c-46-5.1-92.2-11.8-92.2-91 0-22.6 6.2-34 19.4-48.5A78 78 0 0 1 96 89.3c17.2-5.4 56.6 22.2 56.6 22.2a192.3 192.3 0 0 1 103 0s39.6-27.7 56.7-22.2a78 78 0 0 1 2.1 55.8c13.2 14.6 21.2 26 21.2 48.5 0 79.4-48.3 85.8-94.2 91 7.6 6.5 14 18.8 14 38.1 0 27.8-.3 62-.3 68.8 0 5.4 3.8 11.9 14.2 10 82-27.3 137.7-105.4 137.7-196.7C407 90.7 314.7 4 200.9 4"/></svg>