<svg xmlns="http://www.w3.org/2000/svg" width="407" height="407" viewBox="0 0 407 407"><path fill="#D0D0D0" d="M407 208.7a45.5 45.5 0 0 0-27.8-40.2 44.1 44.1 0 0 0-47.7 9.3 215.8 215.8 0 0 0-117.6-38l19.9-96.5 65.3 14a31 31 0 0 0 9.4 19 30.4 30.4 0 0 0 50.9-16 31.2 31.2 0 0 0-18.9-35.2 30.2 30.2 0 0 0-37.4 13.3l-74.8-15.2a9.4 9.4 0 0 0-9.9 4c-.7 1-1.2 2.2-1.5 3.4L194.3 138c-42.5.7-84 13.9-119.1 38a44.5 44.5 0 0 0-53.7-5.7 44.9 44.9 0 0 0-21 31.5A45.7 45.7 0 0 0 26 249.9c-.4 4.5-.4 9 0 13.6C26 332.7 105.7 389 204 389c98.4 0 178.1-56.3 178.1-125.5.4-4.6.4-9.1 0-13.6a44.8 44.8 0 0 0 24.8-41.2m-305.5 31a31.2 31.2 0 0 1 18.8-28.6 30.2 30.2 0 0 1 33.3 6.7 31 31 0 0 1-21.6 52.8 30.2 30.2 0 0 1-28.2-19.1 31.2 31.2 0 0 1-2.3-11.8m177.5 85a116.4 116.4 0 0 1-75.5 23.8 116.4 116.4 0 0 1-75.5-23.8 8.4 8.4 0 0 1 .6-11.2 8.2 8.2 0 0 1 11-.6 99.1 99.1 0 0 0 63.6 19.5 99.4 99.4 0 0 0 63.9-18.8 8.5 8.5 0 0 1 13.8 3 8.7 8.7 0 0 1-2 9.3zm-5.5-52.9a30.3 30.3 0 0 1-28.3-19A31.3 31.3 0 0 1 252 219a30.4 30.4 0 0 1 52 22 31.2 31.2 0 0 1-18.8 29.8 31 31 0 0 1-12 2.4z"/></svg>