<svg width="407" height="284.97" viewBox="0 0 407 284.97" fill="none"
    xmlns="http://www.w3.org/2000/svg">
    <g>
        <path
            d="m203.5 0s-127.4-4.7866e-4 -159.25 8.3809c-17.098 4.6935-31.179 18.774-35.873 36.207-8.3813 31.849-8.3809 97.895-8.3809 97.895s-4.7866e-4 66.381 8.3809 97.895c4.6935 17.433 18.44 31.18 35.873 35.873 32.184 8.7166 159.25 8.7168 159.25 8.7168s127.4-1e-3 159.24-8.3828c17.433-4.6936 31.18-18.438 35.873-35.871 8.3813-31.849 8.3809-97.895 8.3809-97.895s0.33573-66.381-8.3809-98.23c-4.6936-17.433-18.44-31.178-35.873-35.871-31.849-8.7166-159.24-8.7168-159.24-8.7168zm-40.566 81.467 105.94 61.016-105.94 61.018z"
            fill="#d0d0d0" />
        <path d="m162.93 81.467v122.03l105.94-61.018z" />
    </g>
</svg>