<svg xmlns="http://www.w3.org/2000/svg" viewBox="0 0 4091.3 4091.7"><path fill="#F7931A" d="M4030 2541A2045 2045 0 1 1 61 1551a2045 2045 0 0 1 3969 990"/><path fill="#fff" d="M2948 1754c40-272-167-418-450-516l92-369-225-56-89 359-180-42 90-361-224-56-92 368-144-33 1-1-310-78-60 240s167 38 163 41c91 22 108 82 105 130l-105 420 24 8-24-6-147 588c-11 28-39 70-103 54 2 3-163-41-163-41l-112 257 293 73 160 41-93 373 224 56 92-369 179 47-92 367 225 56 93-373c382 73 670 44 791-303 98-278-4-439-206-544 147-34 257-130 287-330m-513 720c-70 278-539 128-691 90l123-494c152 38 640 113 568 404m69-724c-63 254-454 125-580 94l111-449c127 32 535 91 469 355"/></svg>