<svg xmlns="http://www.w3.org/2000/svg" fill-rule="evenodd" viewBox="0 0 1875 1875"><circle cx="937.5" cy="937.5" r="937.5" fill="#988430"/><circle cx="937.5" cy="937.5" r="907.5" fill="#7a6a2a"/><circle cx="937.5" cy="937.5" r="888.4" fill="#ba9f33"/><path fill="#cfb66c" d="M409.9 837.4c-5.3-4.9-11-9.7-16-14.6s-10.5-9.7-15.9-14.5l-15.7-15c-2.6-2.6-5.3-4.9-8-7.5l-8.1-7.1c-21-19.9-42-39.7-62.7-59.6 21.4 19.5 42.4 39 63.8 58.8l7.4 7.5c2.6 2.5 5.3 4.8 7.9 7.4l15.7 14.6c5.4 4.8 10.5 9.7 15.8 15s10.5 10.1 15.8 15m-278-3s76.2 7.9 113.4 13.2c34.4 4.8 142.1 21.4 142.1 21.4Zm0 0c21.5 1.8 42.9 4 64.2 6.4 11 1 21.4 2.2 32 3.3l16 1.8 15.8 2.3 63.7 10.1 31.8 5.4 31.9 5.6a754 754 0 0 1-31.9-4.1l-31.8-4.6-63.7-9.4c-5.4-.7-10.5-1.8-15.8-2.6l-16.1-1.8c-10.5-1-21.4-2.6-31.9-3.8-21.4-2.6-42.7-5.3-64.1-8.6Zm248 54.4s-81.3 20.6-108.8 28.5c-27 7.5-108.8 32.3-108.8 32.3z"/><path fill="#cfb66c" d="M379.9 888.8c-18.1 5.3-36 10.5-54.4 15.3l-54.3 14.6-54 15.8-27 7.4c-9 2.6-18 4.8-27.3 7.4 9-3 18-6 27-8.6l27-8.7 54-16.5c18.4-4.5 36.4-9.4 54.8-13.8 17.4-4.4 35.8-8.8 54.2-12.9M173.7 999.7a8430 8430 0 0 0 136-62.6c12-5.7 47-18 47-18z"/><path fill="#cfb66c" d="M173.7 999.7c7.9-3 15.3-6.7 22.9-10.2l22.5-10.4 45-21.7c15-7.1 29.6-15 45-21.7 8-3.4 15.8-6 23.7-8.7l12-3.8c4.1-1 8-2.2 12-3.3-15 7.1-30.8 13.2-45.8 20.2-15 7.4-30.3 13.5-45.8 20.2l-45.8 20.1c-15.4 6.3-30.4 13-45.7 19.3m10 42s93.4-54.8 125.6-72.4c16.8-9.4 71.3-36.4 71.3-36.4Z"/><path fill="#cfb66c" d="m183.7 1041.7 48-29.6 24-14.5c8.1-4.9 16-9.4 24.4-14.3 8.2-4.8 16-9.7 24.4-14.2a87.5 87.5 0 0 1 12.4-6.4l12.8-6.4c16.8-8.2 33.7-16.5 51.4-23.7-16 10.2-32.6 18.9-49.1 27.8-8.2 4.6-16.6 8.7-24.8 13.2s-16 9.4-24.4 13.8a491 491 0 0 1-24.4 13.8l-24.8 13.5zM380 945s-58.1 44.6-77 58.9-74.1 54.3-74.1 54.3z"/><path fill="#e2cc85" d="m713.3 1304.6-29.7-56.3 17.3-70.4 123.3-47.6-52.5-107.7 25.9-108.8 48.7-97.4 150.5-23.6 110.6-105.4 238.8 18 46.9 255.3-90.3 321.5-51.4 166.4-208.5 7.9-96.7-67.1-113.4-47.3z"/><path fill="#f1d789" d="M1078.9 1302.8s-28.8 13.2-78 10.2c-14.2-19.2-113.9-28.1-113.9-28.1s-12.4-3.8-34.4 5.3c-22.2 9-43.1 7.9-62.7 12.7s-39-20.6-54-25.9c-15-5.6-34.9-19.1-34.9-19.1l-42-4.1-84.3-35.7-134-133.4-36.4 57-11.3 70.5 40.6 83.6 109 99.3 212.7 54 126-37.1 158-66.7z"/><path fill="#f4ecb4" d="m323.3 831 27-81.7 32.1-52.8 103.6-8.7-31.1 90.7-86.6 154.2 36 137.5-63.7 31.9-19.6-30-15.8-68.9-1-77.4z"/><path fill="#f3e19d" d="m439.5 1297.2-19.9-27.8s-5.3-13.2-2.3-24.7c3-11.7 2.6-12.4 1-16.8s-14.2-19.6-13.4-32.7c.7-13.2-1-17.6 8.6-28 10.2-10.2 7.2-27.8 7.2-27.8l13.2 8.2 3-4.5s4.8 3.7 4.8 9.7c1-8.2-3.3-46.2 6.7-54.8s27.7 40.5 27.7 40.5l-10.9-71.3-28-73.1-50-66.8-3-73.5v-6.4s-22.9 35.2-29.2 63c-4.6 19.1 6.3 42.3 4 69.8-1.8 27.3-4 25.2 2.6 36s23 33 16.6 49.1c-5.6 13.8-24.8 4.1-24.8 4.1s-3.7 11.2-9 15.3a34 34 0 0 0-7.3-15c-.3 2.6-1.1 6.1-1.1 6.1s-3.3-10.5-6.7-23.7c-4.5-17.5-9.4-40.8-13.8-53.2-1.8 7.1-6.3 28.8-6.3 28.8l2.5 33.4 12.5 45.8 12 30 11.7 36.7 10.1 24.7 8.2 18.8 7.1 42.3 34.4 36.4 18.4 8.2z"/><path fill="#f2e8b0" d="M341.3 764.3s-24.7 42-31.8 84.3-13.5 87-9 144.7a599.4 599.4 0 0 0 20.1 119.3c12 42.3 43.1 101.2 43.1 101.2l1-2.3a159.9 159.9 0 0 1-12.4-31.1c-4-16.1-5.6-35.2-9.4-43.9-3.3-8.6-9-16-11.6-26.7-2.6-10.1-3-26.2-11-38.2a77.5 77.5 0 0 1-8.6-30.3c-1.5-19.1.7-40.5-1-58.1-3.4-29.3-5.7-49.2-2.7-64.5s18.9-58.9 28.6-93.4c6.3-22.2 2.5-40.9 14.2-60.1 11.7-19.1 18.8-36 21.4-47.7 3-10.6-31 46.8-31 46.8Z"/><path fill="#f5eec0" d="M458.6 747.4s-12.8 3.8-18.8 10.5c-6 6.4-8.7 11.7-16.9 22.4s-8.6 19.6-15.3 33.1c-6.7 13.2-21.4 33-23.2 40.2s-4.8 40.5-8.6 56.3a75.8 75.8 0 0 0 3.8 35.2l8.6-1.8s0 11.2 8.6 18.8c8.7 7.4 10.2-25.2 10.2-25.2l32.3-109 48.7-33.1 5.3-26.7z"/><path fill="#e6db9d" d="M482.3 796.9s-23 1.5-34.2 9.7c-4.5 3.3-6.4 6-11.2 10.2-9 7.4-18 14.2-22.4 24-5 9.7-10.2 24.4-13.9 52.1-1.5 11.7-1.5 22.5-2.5 31.9-1.6 12.7-3.8 22.9-2.6 30 1.5 14.6 16.5 22.1 18 38.7l31-15.8L474 862.2l62.2-39-35.2-39.4z"/><path fill="#e5cb7a" d="m318.2 1574.3.4-3.5c4.5-39 5.3-68.5 8.6-87 4.9-26.3 8.2-36 7.4-45.8-1-15.8-2.2-27.3-.7-39.5 2.3-16 18-35.2 17.6-48.4-.3-10.5-5.6-17.3-10.2-23.6s-8.2-11.7-8.2-11.7 31.1-21.4 30.8-107.6a8.2 8.2 0 0 1 1.9.8l15.3 43.5 10.4 12.7 40.2 75 51.8 50.2 76.4 51.4 48 52.2 4.8 139.1-62.6 81.3-10.3 18.6a891.1 891.1 0 0 1-221.6-157.7"/><path fill="#d8c173" d="M509.6 1707.4s1-17.3 15.3-28.6c2.3 3.8 3.8 7.5 3.3 10.2a90.4 90.4 0 0 1 61.5-41.3c40.8-7.4 50.6-37.1 50.6-37.1l86.6-78.7 99.1-91.2 120.5-42.3 56.2-13.8s1.1 4-1 13.2a274 274 0 0 0 57.8-14.6c9.7-3.8 18.8-5.3 23.6-.3 7.2 6.7 8.2 22.4 8.7 31.8 11.7-2.5 25.2-13.8 36-12.7 17.3 1.8 32.6 22.2 50.2 22.2 23.2 0 33.7-14.3 50-25.5 9.6-6.7 23.6-15 31.5-20.7 18.8-13.8 217.8-74.6 217.8-74.6l69.8 4.5 11.2 75-6 195.9-2.2 2.1-317.3 165.8L793 1814a882.1 882.1 0 0 1-281.2-96.7z"/><path fill="#f1d789" d="M344.9 1599.2c6.2-13 11.8-24 12.8-27.9.8 7.9 2.2 25.2 5.1 43.6z"/><path fill="#e0cd81" d="m666.1 1783.6 56.9-15.8 4.9 1.5s2.5 1.5 2.5 6.6c7.2-4 13.2-3.3 17.6-6 2.3 4.8 4.6 21 14.6 22.9 10.5 2.3 21.7-4.6 33-13.2 11.3-9 24-20.2 33.7-24.7a180.8 180.8 0 0 1 9.4 20.1c12.8-10.1 35-51.4 66.5-50.6a119.7 119.7 0 0 1 43.8-53c29.3-19.9 47.6-21.4 70.5-19.6a120.6 120.6 0 0 1 33.1-29.5c3.8 1.5 14.3 7.9 27.3 1.8 13.2-6 28-29.6 47.6-32.6a46 46 0 0 1 30.4 6.4s57-56.6 96.3-75.4c-1.5-4.6-4.5-21.7 41.6-59.7 2.6 2.3.7 8.7 2.6 9 .7 0 12-4.8 26.2-15.7 17.6-13.2 38.7-27 51.4-30.8 24-7.2 49.5 7.4 49.5 7.4a22.8 22.8 0 0 1 7.1-3.3c6-1.1 10.5-1.9 13.8-3-.3 7.8 4.1 21.3 0 33a73.8 73.8 0 0 0 15 6.4c-2.6 5.6-8.2 19.9-17.6 26.7 7.9 3.8 9 8.2 20.2 12a215 215 0 0 0-15.3 24c-3.4 7.1-15.4 36.7-20.7 48-5.6 11.2-13.2 31.8-16.8 36s-16.8 21.6-27 30.3c9-3.4 45.8-14.6 61.4-18.9l-50.8 75.5a890.1 890.1 0 0 1-728.7 84.3Z"/><path fill="#dfc57c" d="M486 792.8s-13.2 0-15.8 1.8 13.2 5.6 18 7.4 15.4 10.2 18.1 16.9c2.6 6.4 94.8 43.5 94.8 43.5l65.3-3.3 22.5-31.1-42.8-37.5 30-88.4-39.8 6.4-95.5 57-48 18.3z"/><path fill="#e5cc7c" d="M629.3 822a10.2 10.2 0 0 0 9 5c13.5 0 25.9 3.2 31 10 8.7 11 32.7 46 32.7 46l57.3 20.6L763 836l-62.6-43.5-71.3 26.2v3.3z"/><path fill="#d2c281" d="M618 847s10.5.9 23.7-4 34.8-15.3 44.3-11.2c13.1 5.6 10.4 23.2 24.7 39 8.6 9.7 24.4 9.4 33.4 19.9s39.7 5.6 39.7 5.6l11.7 63-46.9 60-15.3 74.7h-63.4l-57.9-23-28.5-69 14.2-69.8z"/><path fill="#e2c270" d="M740.6 850.1a17.2 17.2 0 0 0 4.9.8c-1.9 1.5-5.7 4.8-4.1 13.5s6.3 19.6 2.2 26.2a32.8 32.8 0 0 1 7.2 12.5c2.5 7.4 3.3 14.2 20.1 15.3a35.4 35.4 0 0 0-6.6 5.3s11.6 10.2 17.6 19.6c6-.3 22.1-5.3 22.1-5.3l3.3 2.3 7.2-3s-6.7-2.6-1.8-18.8c4.5-14.3 8.6-13.5 9-14.6s3.3-16 3.3-22.1c2.3-8 4-31.9 4-31.9l-4.8-53-27.3-16.5-22.2-21.4-21 39.4-13.7 13.8-1 34.1z"/><path fill="#ccb360" d="M806.3 805.8s4.8 13.8 6.7 24.5a23.5 23.5 0 0 0 1-6.4s3.8 21 4.6 29.6c1.5-.3 3-.8 3.3.7s3.8 18.4 3 27.8a75.7 75.7 0 0 1 25.5-25.5c6-3.8 13.2-7.9 20.6-8.2 11.7-.3 20.2 7.4 34.1 7.4 33.7 0 64.2-24.7 86.7-32.3 16.5-5.6 30.8-9.7 40.8-18.8 4.8-4 13.5-13.2 21.4-26.7 10.4-18 21.4-33.7 32.3-35.6a67.8 67.8 0 0 1-15 1s3.3-3.3 9-7.9 12.4-10.1 22.1-10.1c17.3 0 26 2.6 35.7 2.6 9.7-.3 15.3-2.6 15.3-2.6s10.2 7.1 33 7.1c23 .3 38.3 2.3 50.3 3.3s52.2-3.3 63.7-3a55.8 55.8 0 0 1 21.7 5.4l-37.2-108-133.5-116.7-79.5 56.2L949.6 692l-118.3 43.9-24.7 27.7v42.3Z"/><path fill="#d5b457" d="M1071.8 744s3.3-3.4 8.9-8 12.5-10.1 22.2-10.1c17.2 0 25.9 2.6 35.6 2.6 9.7-.3 15.3-2.6 15.3-2.6s10.2 7.1 33 7.1c23 .3 38.3 2.3 50.3 3.3s52.2-3.3 63.7-3a55.5 55.5 0 0 1 21.7 5.3l-16.8-48.7-19.6-37.1-55.8-61.2-67.5-39.7c-.3-.3-23.2-6.4-23.2-6.4l-60.7 36.7-55 142.5-1.1 30 35.6 16.8c9-15 18.8-27 28-28.5-8.3 1-14.6 1-14.6 1"/><path fill="#d2b257" d="M1071 754.1c-5.3.3-9.7-.8-11-4.5-4.5-12.8-8.1-14.6-12-14.6s-8.9 8.2-12 9-6.6-9.5-6.6-9.5l-3.3-1.5s-19.6 12.8-33.4 27.8-36.4 40.5-46.6 45-45 6-57 8.7-25.2 11.2-27 13.2 5.3 4 6.4 6c1 1.9-11.7 1-12.7 3-.8 1.6 3 10.2 4.8 14.6a24.7 24.7 0 0 1 10.5-2.6c11.7-.3 20.2 7.4 34.1 7.4 33.7 0 64.2-24.7 86.6-32.3 16.6-5.6 30.8-9.7 40.8-18.8 4.9-4 13.5-13.2 21.4-26.7a190 190 0 0 1 17-24.2"/><path fill="#d2b159" d="M588 1504.9s-3-11.3-30.8-40.2c-7.9-8.2-12.7-15-18-20-13.2-12.4-21-15.7-30.4-22.8-20.6-15.3-43-15.3-60.4-34.2S411 1333 397 1296.3c-13.8-36.7-17.6-48.4-17.6-49.5s3.8-8.2 8.7-7.1 4.8 10.4 6 12.7a75.3 75.3 0 0 0 8.2 10.5c7.1 8.2 17.3 18 22.5 32.6-1.1-12.4-5.4-26.2-5.4-26.2s26.7 16.8 49.5 34.4c23 17.6 32.3 23.7 39 34.9s22.4 40.8 30 49.5 111 41.2 111 41.2l49.2 36.7 24.4 53.6-19 30-36.8 7.8-59.6-26.7z"/><path fill="#c2a44d" d="M455.6 1320.4s12.4 19.9 42.7 38.7c27.3 16.5 70.6 31.5 109.1 40.5a306 306 0 0 0 64.2 9.7c53.5.7 90.4-14.6 136-19.6 24.8-2.6 55.1-4.5 86.7-12 40.5-9.7 64.4-20.6 97-36 23.7-10.9 45.4-19 63-29.6 24.7-14.5 42.8-30.7 63.7-35.6-2.5 7.1-5.3 19.9-26 33 11-.2 26-1 26-1s-14.5 8.7-40.2 28c-15.7 12-36.7 32.4-58 45.9-13.9 8.6-28.9 15-38.8 20.2-24 13.2-33.6 19.8-49.4 36 5.6-.3 6 0 6 0s-19.8 2.5-34 10.1c-3 0-8.3-1-17.4 1.5-7.1 2.3-16.5 7.5-26.2 10.2-13.8 4.1-18.4 2.3-18.4 2.3l2.3 4.5s-18-.3-24 .3c1 .3.8.8.8.8a9.2 9.2 0 0 0-3 1 31.3 31.3 0 0 1-9.4 4.1c-1.8.3-3.4.3-5.6.8.7 1.8 6.6 12 9.4 18-2.3 1.5-36.4 27.3-36.4 27.3a26 26 0 0 1 2.5 5.3c1 3.3 1.6 8.2 2.6 10.5 2.6 4.5 4.1 5.3 4.1 5.3s-4 .8-11.2 2.6c-6 1.5-13.5 4-24 5.6a95.1 95.1 0 0 1-9.7.7c1.5 3.4 8.2 16.1-4.1 30.8s-16.1 16.9-20 26.3a40.7 40.7 0 0 0-6-3.8c-4-1.8-9.7-4.6-11.7-8.2a97.3 97.3 0 0 1-4.5 14.2c-3.8 10.2-9.4 20.2-10.5 27.8-4-4.5-11.6-13.5-22.1-11.7s-18.8 16.1-20.6 20.2c0-2.6-1.9-4.5-2.3-1.5-.3 3.3-6 38.2-38.2 66.4-.3-7.1-.3-22.9-1.1-28-3 3-6.7 7.4-28.5 16.8-21.4 9.4-18 18.8-18 18.8s-1.8-15 9.7-30.8c11.7-15.8 18.8-23.2 18.8-24.4a6.8 6.8 0 0 0-1.5-3.3c-1.5-1.6-4.6-3.4-4.6-4.6 1.8-.7 19.9-9.4 18.8-27.3a48 48 0 0 0-12.7-30.3c-.8-.8 7.1-6.4 6-8.2-.7-1-10.4-8.2-11.6-12a34.9 34.9 0 0 1 1.5-6.7c1-3.3 1.8-5.6 1.5-7.9a63.1 63.1 0 0 0-6-15.3c1 .3 8.6 0 8.6 0s-6-9.7-7.1-14.3-3.4-16.5-4.6-18.8c2.6.3 9 .8 9 0 .3-2.3-5.6-6-3-9 1.8.3 5.3 1.8 8.6 6.1-1.8-4.9-4.8-14.3-11.2-18 3-1.1 13.2-3.9 22.1 1.5s12 12.7 12 12.7l13.5 10.2c9.4 7.4 21.4 18 40.5 25.4 4.1 2.3 14.6 2.3 22.2.8a34 34 0 0 0 9.4-3.8 17.4 17.4 0 0 1 3.3-1.5 72.7 72.7 0 0 0-5.6-9.4c2.6 0 5.6.3 5.6.3s1.8-4.1-6.3-12c1.8-1.8 4-3 4-6-2.5-.4-7-4.2-8.1-5.7 1.5-1 3.8-4.5 6.3-5.6-2.2-1.8-7.9-9.4-10.4-10.2a47.7 47.7 0 0 0 7-3.3s-12.6-3.3-16.7-6c-4.1-3-10.2-8.2-13.8-9.8-3.8-1.5-10.5-2.2-13.2-5.3 2.5.8 6.6 0 9.7 0 2.2 0 3.3.3 4 .3-.2-1-.2-3.3 5.7-4a27.7 27.7 0 0 0 8.2-2.6s-5.7-.3-12-6.4-11.7-11-15.4-11.7c-3.7-.8-10.9 2.6-15.3 2.3-6-.8-8.6-3.8-8.6-3.8s-20.2 1.8-65-25.5c-38.6-23.7-55.5-44.6-55.5-44.6a66.5 66.5 0 0 1-10.4-4.9c-14.6-7.5-34.8-23.3-34.2-44Z"/><path fill="#caa13e" d="M1013.7 409.9a19.7 19.7 0 0 1 9 6c7 8.3 11.6 23.7-4.6 40.3 6.4 2.2 9 3 14.6 2.2-5.6 6.7-18.4 21-19.1 33.4-.8 10.2 5.6 13.2 5.6 13.2s-9.7 11.2-10.2 30a121.6 121.6 0 0 1 15-14.3c11.2-8.9 26.7-19 37.2-25.4a21.4 21.4 0 0 0 1 7.8s19.6-16 36-8.9c7.5 3.3 4.1 13.8 4.1 13.8s10.2-3.8 17.3 3.3 17.2 25.6 22.4 32.7c2.3 3.3 8.2 9.7 14.3 19.6a247.5 247.5 0 0 1 20.6 43.5c.3-7.9 2.3-20.2 24.7-12.4 22.5 7.8 48 24.4 69.3 57s26.7 69.3 37.5 83.3c11 13.5 22.2 36 23 45.4s-3.4 39.7 19 121.8c6.4-25.5 16.1-82.1 16.1-82.1l5.3-50 6-154.3-161.2-134-126-91.5-82.1 7.9z"/><path fill="#b59544" d="M1313.3 639.7s-2.3-15-40.2-40.5c-38-25.2-67.5-25.2-94.8-46.6-21-16.8-42.8-55.5-57-68.2-13.9-12.6-16.1-49-16.1-49l46.5-39 69.3-100.1 58.6-64.5 28 39 39 45.8 21.7 92 7.9 134.5z"/><path fill="#c89d3a" d="M1360.1 801a171 171 0 0 0-7.4-60.4c-10-31-31.8-86.3-42-107-4.1-22.9-1-24.7 3.3-27.3s21-12 30-45 37.2-34.2 37.2-34.2l17.3-12.7 26.3 65.7 22.9 59.3 7 45.4 5.4 38.6-12.4 81.8-61.5 55.5z"/><path fill="#ceb052" d="M502.9 1712.4v-1.7a12.9 12.9 0 0 0 3.3-3c1-1.5 1.8-3.3 2.6-3.8 1.5-.7 8.6-3 12.4-2.3s13.8 4.9 19.2 4.6c10.9-.3 23.6-8.7 43.8-4.9 30.3 5.7 37.5 26.3 55 38 12 8.2 24.5 4.5 26.3 4.5h4.1c.8 0 6.4-6.4 9.4-6 6 .3 6.7 5.3 10.5 5.6 9 1 26.2-4.6 34.9-2.3a16.7 16.7 0 0 1 10.9 10.9c1.8 5.6.3 12.7-4.1 16.8-9.4 8.7-18.4 16.9-20.2 24a85.3 85.3 0 0 1 6.7 5.7 883.2 883.2 0 0 1-214.8-86Z"/><path fill="#cca847" d="M1310.7 1409.3s23.6-31.6 31.8-47.2c8.2-16.1-25.9-220.1-25.9-220.1l68.6-224.7-1.9-73s3.4-67.6 11.3-96.9c9.4 16.9 38.7 37.2 45 48 3-20.7 13.2-64.2 11.7-110.6 5.6 8.6 19.1 95.6 19.1 95.6l13.5 58.5 17.6 62.2 19.6 65.7 11.7 45.4 6.6 10.9 5.7 19 5.3 20.7 15.3 48.4 9 39.8 7.1 72a109.9 109.9 0 0 1 3.4 16.9c.3 7.8-1.1 12.4-1.1 13.8s2.6 17.3 1.5 29.2c-1.5 12-1.5 21.4-11 30s-15.2 60.1-15.2 60.1l-16.9-11.2s3.4-15.3-4.5-29.3-23.2-16.8-31.9-14.6c-8.6 1.9-26 4.6-31.5 9.4-5.3 4.9-18.4 20-30.4 26.8-15 9-39.4 9.7-52.5 12.7-13.2 3-27.7 12-43 22.4a240.6 240.6 0 0 1-38 20Z"/><path fill="#c39d3c" d="m1310.7 1740.8 3 1.7a891 891 0 0 0 284-210.5c-1-30.7-2-62.2-3.3-73.9-2.6-24.7-.8-49.9-1.5-64.4s-9-74-12.8-89.2c-4-15.4-12-23-13.2-23-1 .4-7.4 28.9-7.4 36s-1.5 24.5-1.5 28.9c-1.1-.3-1.5-3-1.5-4.1-1.6 3.8-3.4 10.5-4.1 11.2s1-6.4 0-7.9-3-.7-2.6-4.5a43.4 43.4 0 0 1 1-6.7s-4.5 6.7-7.8 23.7c-3.4 16.8-3.4 17.3-4.6 18.8-1 1.8-7.1 7.9-7.4 10.1-.3 4.1 5.6 8.2 6 10.5.3 3.8-5.3 21.4-7.1 30s-1 25.5-3 34.1c-1.5 8-3 12.5-8.2 15.8 3.8.8 7.4 1.8 7.4 1.8s5.3 22.5-8.2 41.6c-4.8 6.7-6 9.7-11.2 15.8-10.1 11.2-18 24-18.8 32.3a54.3 54.3 0 0 1-1-7.5s-15.8 18.4-22.5 28.9c-8.6 13.5-20.6 12.7-24 16s-4.1 9.4-3 14.3c-3 .8-8.6 1.8-12.4 13.5-1.9 6-6.4 12-13.5 16s-15.8 5.4-20.2 6.5c3.8 1 5.3 1 7.1 2.2-2.3 3.8-12.7 9.7-24.4 17.3a51 51 0 0 0-20.2 24.4c-3 6.4-7.4 10.5-14.6 11.3 3 1.8 7.5 6 9.8 7.4-3.4.8-9 .8-19.2 9.4-10.6 8.8-14.2 11.4-19 12.2Z"/><path fill="#d2ba6b" d="M1099.6 1811a85.8 85.8 0 0 1 18.7-9.9c23.7-9.4 48.7-11.2 58.6-14.2 9.4-3 16.8-7.2 28.5-9.4l-.9 7.5a884 884 0 0 1-105 26Z"/><path fill="#c0993a" d="M1536 1188.7s-4.8 26.3-13.5 42.8-18 39.4-18 39.4a72.2 72.2 0 0 1 1.8-15.3c-10.9 6.4-37.5 21.7-45 28.5a152.4 152.4 0 0 0-22.1 23c7.1-21 14.5-39.8 15.7-48.4a965 965 0 0 0-88.4 77.6l-82.7 67a286.1 286.1 0 0 1-29.4 13.7c-14.2 6-31 11.2-43.5 16a69 69 0 0 1 16-24.4c8-7.4 31.6-33 35.2-45 3.4-12.4 4.1-19.8-.3-30.3-4 1-13.5 1.5-19.8 3.3s-13.2 8.7-13.2 8.7 4.8-27.8 15.3-54c-7.9.3-21.4 2.6-21.4 2.6s18.8-31.6 51-53.6a165.9 165.9 0 0 0-28.8 9c-18.8 7.9-39.5 19.5-54.8 25.9 8.7-12 69.3-98.6 105.5-179.3 36-80.6 49.4-101.2 57.3-144.4 4-21.4 3-53 4-81.3 1.1-28.1 4.6-53.3 2.4-70.1 9.4 11.7 44.6 44.6 45.8 118.2 1 73.5-33.7 172.9-70.6 226.4 9 2.6 32.3 5.7 56.3-36s23.7-53.2 32.3-70.5c1 8.7.8 11.7.8 11.7s34.9-42.3 51.4-95.6c3.3 23 13.2 43.1-2.3 85.1-13.8 38-31.8 47.2-31.8 47.2s9-1.5 22.1-9.4c2.3 5.6 1.9 12 5.6 14.3s9 6 9.7 9.7c4.1-6.1 10.5-13.8 12.5-19.6-1.5 12-2.6 64.5 3 91.2 11.7-1.1 23.7-1.9 31.9-23a93.8 93.8 0 0 0-1.9 50.7c6.3-4.2 11.9-11.8 11.9-11.8"/><path fill="#a88f33" d="M1141.8 352.6s-11.6 4.8-31.5 4.8c-17.3 0-12.4-6.7-39.4-6.7-41.6 0-186.8 24-212.3 23.7-16.5-.3 55.8 7.1 55.8 7.1l185 2.6 37.1-3 13.8-28.1z"/><path fill="#e3c571" d="M662.3 714s-23.6 18.1-33.7 32-15.3 22.8-26.7 34a23.3 23.3 0 0 0 8-1s0 3-1.9 3.8a10.6 10.6 0 0 1 8.6 3c-3.3 1.8-12.4 10.9-5.3 21.7 5.4 8.2 16.6 9 16.6 9s-2.6 7.4 8.2 6.6c23.2-1 49.1-11.2 61.1-8.7 12 3 18.8 4.1 27.3 18.9 9 14.5 16.8 16.8 16.8 16.8s5.4-13.5 4.2-33.7a100.2 100.2 0 0 0 7-34.1l-7.8-58.1-34.4-43.5-44.6 24.7z"/><path fill="#d8b65b" d="M704.6 705.4s3.4 7.9 17.3 8.6c-1.5 3.4-1.5 3.8-1 6.4l.7 6.4a14.1 14.1 0 0 0 4.1-3c.8 3.3-.7 8.6 0 12.4a27.6 27.6 0 0 0 2.3 6.7 13.4 13.4 0 0 1 .8-1.5c.3-.8 3 8.2 10.4 15a6.2 6.2 0 0 1 .8-3 10.5 10.5 0 0 0 1.8 5.3 5.5 5.5 0 0 1-1.5-1s.7 24 4.8 36.3a17 17 0 0 0 1.9-2.5c0-.8-.3 6.6-1.1 12-1 5.3-.3 12.7-.3 12.7a39.8 39.8 0 0 1 9-5.3c4.5-1.8 12-7.4 16.5-19.9a132.8 132.8 0 0 0 6-21.7 30.3 30.3 0 0 1 3 9c.4 3.8 7.5 1.8 7.5 1.8l1.5-16.5 9-37.5 8.2-23.2 39.4-61.4 71.3-54.9 62.2 14.3 52.5-71.3-90.4-54.3-85.6 9-77.6 107.5-62.2 97.5z"/><path fill="#d3ae4d" d="M1152.8 549.8s-5.3 1-20.7 9-26 10.4-31.8 22.1-6.4 21-6.4 21 10.5-4.6 16.5-6.1c6.4-1.5 13.5-1 12.8 1.5a17.6 17.6 0 0 1-3 4.8s12-.3 11.7 5.7-2.3 12.4-4.6 15.3c-2.3 3-11.7 7.4-12.7 11-2.6 7 1 7.3-.3 13.1-1 5.6-6 16.5-22.5 35.7-16.8 19-24 32.6-24 32.6s-8.2-15.3-12.4-28.5c-3 1.5-19.1 10.4-19.1 10.4l-37.3-130 .7-8.6s3.3-4.1 4.1-11.7c-5.6-1.8-6.4-3.4-13.8-10.5s-13.5-15.8-26-21.7c-1.8-3.3-4-7.9-13.1-9.7s-14.6-3.3-14.6-3.3 4.9-1.8 7.1-5.6c-5.6.7-10.1 2.5-22.4 2.2-12.5-.3-13.8-.7-20.6.3s-15 4.1-18.1-6.3c-3.3-2.6-10.5-.3-16.5 8.6s-8.2 16-20 19.6a40.7 40.7 0 0 1-5.2 14.5c-3.4 5.7-8.7 11.3-15.8 19.6-11.2 13.2-9.4 34.9-27.3 51.4-18 16.6 3-45.8 3-45.8l28.8-69 82-80.2 127.5-8.7 12.5 66 62.2 21.4z"/><path fill="#caa13e" d="m1173 564.3-53.6-77.2-37.5-28.8s-26.7-49.2-28.5-50.7a356 356 0 0 0-42.8-4.8l3 7.4a19.7 19.7 0 0 1 9 6c7.2 8.3 11.7 23.7-4.5 40.3 6.3 2.2 9 3 14.5 2.2-5.6 6.7-18.3 21-19 33.4-.8 10.2 5.5 13.2 5.5 13.2s-9.7 11.2-10.1 30a121.6 121.6 0 0 1 15-14.2 381 381 0 0 1 37.1-25.5 21.4 21.4 0 0 0 1.1 7.9s19.6-16.1 36-9c7.4 3.3 4 13.8 4 13.8s10.3-3.8 17.4 3.4 17.3 25.4 22.4 32.6c2.3 3.3 8.2 9.7 14.3 19.5a247.3 247.3 0 0 1 20.6 43.6c.3-6.1 1.5-14.6 12-14.6z"/><path fill="#f4efc8" d="M370.2 783.7s-3.8-9.4 0-27.8 9.7-27 11.6-54 19.6-60.7 19.6-60.7l48.7-22.1 34.4 9.4 10.2 46.1-43.5 24s-2.3 10.2-14.6 18.4-29.3 14.5-33.4 22.9a66.8 66.8 0 0 0-5.3 16s-12.4-2.5-19.9 5.7c-7.9 8.3-7.6 15.8-7.9 22.1Z"/><path fill="#ebcc73" d="M468.5 771.4s-4.2 2.6-7.2 9c-3-4.9-10.2-33.7-10.5-59.6s-1.8-32.4 4.2-41.3 29.5-18.4 26.2-34.5c-3.3-15.3-17.3-21.7-34.4-17.3-12 3-21 28.5-33.4 41.3-9.4 9.7-20.6 8.2-23.7 13.5-4 7.1-.3 14.2-1.5 18.8a90 90 0 0 1-11 19.6c-13.7 19.8-37 47.9-40.1 73 1-14.2.3-14.5 4-30.3l-2.2-3.8 15-49.1 9.7-40.5 21.7-67.8 38.2-69.3 37.2-41.6 38.7 2.6 4.5 58 22.2 109.1 46.5 57.4-74.6 50.2z"/><path fill="#e5c66b" d="M491.7 792s-6.4 1.5-8.7.3-4.5-2.6-3.8-4 4.9-4.2 4.9-5.4a4.3 4.3 0 0 0-3.8-4.5c-3.5-.5-4.6 1.8-4.6 1.8s-3.3-2.6-6-3a42 42 0 0 1 4.8-.3 47.3 47.3 0 0 0-13.2-3.8c3.8-2.3 11.3-9 16.1-9s7.9-.7 7.1-3.3-4.5-6.4-8.6-7.9c1.5-1.8 2.6-4.5-1-12-3.9-7.4-2.3-12.4-1.1-14.2 1-2.3 4.8-6.4 6.6-9s3.4-6 6.4-7.9c1.5-1 6.4-3 11.2-4.8 5.4-1.9 9.8-4.1 12.8-1.9 3.3 2.3 1.8 5.3 1.8 5.3s10.5-3.8 19.9 1.1a152 152 0 0 0 32.3 7.4l8.2 16.6-54.3 46.6-22.5 11.2z"/><path fill="#e6bd62" d="M567 715.9s-16.8 11.2-20.6 15.3c2.3.3 6 1.8 4.6 4-1.9 2.4-12.8 10.3-18.9 17.7a116 116 0 0 0-14.5 21.4 77 77 0 0 1-25.5 17.6c12.4 0 37.5-15.3 46.9-15.3-.3 4.5 2.6 9.7 7.9 10.1s20.6 3.3 41.2-9.4c20.7-12.4 13.8-21.7 22.5-27.7 16.5-11 23.2-20.7 32.3-26.7s13.8-7.5 13.8-7.5.3-4.5 3-4a4 4 0 0 1 3.3 2.5s15.8-11.2 36-14.3a2.1 2.1 0 0 1-1-1s1.5-.8 1.8-1.5c0 0 1-1.6 1.8-.8s1.8 6.4 3.4 8.7c3.3-1.6 9.7-15.8 9.7-15.8l15.3-43.9v-40l-12 2.3-90 38.2-54.6 56.6z"/><path fill="#b6933f" d="M826.2 519.4a50.9 50.9 0 0 0 13.8-5.6c-1.8 4.9-1.8 10.2-9.7 21.7s-8.2 13.2-14.6 25.2c-6.3 12.4-7.1 30.3-13.2 38.2a27.7 27.7 0 0 1 8.7-2.6s-6 5.3-8.7 11-7.1 17.2-18.3 24.4-25.5 11.7-40.8 28.5c-15.4 16.5-31.1 37.5-39 45 4-7.1 9.7-21.4 11.2-30.8s-.3-20.6 2.3-33 2.5-21.5 15-43.2 33.6-97 33.6-97l45.9-14.6z"/><path fill="#c49937" d="M793 491.7s-13.7 19.8-17.5 37.4-.3 16.1-2.6 24.8a32.3 32.3 0 0 0 0 16 57 57 0 0 1 19.1-18.8c13-7.9 23.7-13.5 30-20.2 6.4-7 11.7-18.8 25.5-27.7-5.6-.8-13.5-3.3-15-3 5.6-6.4 22.4-16 39.4-27.8 16.9-12 15.8-16.8 43.1-28.8-9 1.5-13.2-.7-20.6 0 3-6.4 13.5-9.4 24-19.9s-6.7-25.9-6.7-25.9l-80 48.4z"/><path fill="#dfc068" d="m576 455.6 1.8-14.6 22.9-36.7 24-64.5v-88.1l-1.8-51 3.8-33.4 2.9-10.6 3-4.1 19.6 10.2 27 36.7 2.5 70.8-26.2 111.8-74.9 81.8z"/><path fill="#a88f33" d="M635.6 148.5s-12 .3-14.5 50.2-3.8 76.2-5.7 101-6 39.7-8.1 54.2-3.4 34.5-10.2 46.6c-3 5.6-9.4 23.2-24.4 36.4a150.6 150.6 0 0 1-45.8 25.5c-6.7 1.5-40.6 4.8-54.4 12.4-4.8 2.6-13.2 5.6-22.4 14.3a286.5 286.5 0 0 0-60.4 81.7c-27 53.3-54 203.6-54 203.6l6-10.1s.8-13.5 14.3-37.2c13.2-23.7 9.5-50.2 27.8-95.6 7.1-17.3 16-39.7 27-58.8 17.3-31.1 38.2-57.8 59.3-72.4 34.5-23.6 72.4-28.8 72.4-28.8l40.8-27s7.1-13.8 16.5-29.6c13.2-22.1 30-46.9 33.7-82.8 5.6-53.3-7.9-88.1-7.1-119.7s1-54.8 7.4-60.4 1.8-3.5 1.8-3.5"/><path fill="#c99e3d" d="M635.6 386.7s18-44.3 26.3-83.6c1.5-7.9 4.5-15.8 5.3-22.1 3.8-37.2 4.8-52.5 0-72.9-3.8-15-18.4-28.5-26-39-7.4-10.9-10.9-15-9.4-17.3s7.5-6 13.2-5.6a45.2 45.2 0 0 1 32.3 15c11.7 13.5 21 59.3 21 59.3L708 281l24.7 76.2z"/><path fill="#b58634" d="M804.8 340.6s-3.4 1.5-9.4 0a13.5 13.5 0 0 1-6.1 12.7c-6.4-2.6-66 2.6-66 2.6s-27.8-4.9-36.4-41.6c-6-24.4 4.5-58 1-80.2-5.3-32.6-12.7-39-13.5-49.2s-1.5-12.7-1.5-19c-3.3-.9-5.3-2-8.6-2-.8-3 .7-5.5-2.6-10.8 1.8.7 14.3 2.2 28.8 16 12 11.3 12 15.4 13.8 17.6 2.3 2.3 20.7 18 28.5 33.7s23.3 65.7 26.7 73.9c1.1 3.3 3.4 6.7 9 14.2 8.8 11 21.7 29 36.3 32Z"/><path fill="#a88f33" d="M706.5 187.5a420.4 420.4 0 0 1 24.7 46.1c9 20.2 14.3 36.7 25.5 50.2-6-17.6-16.9-52.2-23.2-64.4a152 152 0 0 0-27-31.9"/><path fill="#e6c367" d="M603.3 436.9s-15.3 3.8-43.8 18.8c-9.4 4.9-18.4 9-27 12.7a471.2 471.2 0 0 1-65.7 24.8l2.2 2.6s0 7.4 4.1 11.6c-2.2 2.3-32.6 23-23.6 92 6-2.3 13.2-5.3 14.2-5.3 1.9.3 2.3 5.3 4.6 5.3s9.7-3 17.6-13.2c-.3 4-4.9 45.3 19.6 73 4.5-5.2 16-22.8 16-22.8l.3-5.6s1.1-19.6 7.5-37.5 18.8-31.1 18.8-31.1l64.9-92.7z"/><path fill="#dcba5a" d="M542.6 573a35.9 35.9 0 0 1-9.7 4.9c-1-3.8-2.6-16.9 6.4-29.6 10.5-15.4 33.4-35.2 39.7-51 4.1-10.2 2.3-35.7 38.7-68.3s50.7-43.8 50.7-43.8l58.8-29.6 72.4 28.5-36 140.9-27.9 66-111-21z"/><path fill="#e9ce77" d="m585 534.7 13.8-17.3v-12.2s15.3-4.1 31.9-21 39.4-49.1 59.6-47.2c20.2 2.3 22.1 43.9 22.9 55.6s3.3 38.2 7.4 52.5c4.6 14.2-49.1 68.2-49.1 68.2L635 641.1z"/><path fill="#cdae50" d="M627.7 678.7s11.3-17.6 3-21.4c4.9-11 13.8-22.4 13.8-22.4s6.4-15.8 27-35.2 33.4-32.3 36.7-45.4a119.5 119.5 0 0 0 3.4-26 49.2 49.2 0 0 0 7.1 5c3.4 1.4 19.1 14.5 16.9 40.7s-12 37.2-12 37.2-9.4 9.4-16.1 14.3c-7.1 4.8-9.7 10.4-21.7 10.9a14.4 14.4 0 0 1 4-2.3s-12.3-1.5-19 4.5-21 24.8-28 30.4z"/><path fill="#d2a83e" d="M1132.1 383.6a182.7 182.7 0 0 0-55.8-10.9c-31.8-1-78.4.8-124 1-49.2.4-93.8-16.8-155.7-19.8-10.2-6-36-32.6-116.7 23.7 4.9-.3 58.6-12.5 77.2 10.9 18.8 23.2 13.5 62.7 11 72-4.9 21-20.7 51.5-27 72.9s-4.9 32.6-9.5 47.6-14.5 22.5-8.6 39.7c7.9-4.8 12-4.8 25.2-34.4s10.4-50.7 32.3-75.7c21.4-25.2 57-59.6 70.5-68.3s121-64.4 233.7-11.2c27.1-2.9 47.4-47.5 47.4-47.5"/><path fill="#c29637" d="M725.3 363a13.9 13.9 0 0 0-.8-3.3 24.4 24.4 0 0 0-4-6.1s-26.8-4.9-40.3-3.3c-23.7 2.5-45 31.8-55 46.8s-22.5 38.3-36 50.2a5 5 0 0 0-.8-3.3s.8 1-.7 2.6-1.5 2.3-.8 3l2.3 2.3c.8 0 21.7-9.5 50.2-36 30.4-27.8 53.6-42 65.7-47a92.4 92.4 0 0 1 20.2-5.9"/><path fill="#ac8132" d="M1243.2 249s-4.9 6-11 12.7c-13.5 14.2-31 30.3-46 46.9-14.3 15.7-30.4 28-48.5 48.6s-39 43.6-44.3 50.3a49.5 49.5 0 0 0-8.6 23.2c-2.6-1.9-5.6-3.8-5.6-3.8a38.1 38.1 0 0 0 4.5 6.7c3.8 5.3 9.7 12 12.8 16a49 49 0 0 1 7.9 17.3c1.8.3 13.5 2.6 28-21.4s33.7-50.2 33.7-50.2l30.3-45 19.2-38.3 24-42.7z"/><path fill="#a88f33" d="M1274.3 218.3s-18.4 15-25.5 24-24 32.6-24 32.6l6-.7 30.9-27.3 12-21.4z"/><path fill="#a67a2e" d="M1268.7 1423.9s-.3-12.5 6.6-20c7.2-7.4 25.2-18.3 42.8-59.2s19.6-50.2 19.6-50.2-31.6 27-51 33.3c4.5-9.4 7.1-16 9.4-21-2.6-2.2-13.5-4.8-14.6-6 6-6 9.4-21 21.7-30.8 15.8-12 44.6-32.6 67-51s66.5-61.1 72-73.6c3.4 4.9 4.2 8 4.2 8s-22.2 28.8-33.7 47.1c-10.2 15.8-9.4 24.7-9.4 24.7l21-9s6 22.5-21.5 56.6c12-4.5 16.9-1.8 23.7-5.6-11.2 7.2-26.7 16.9-41.3 43.6-14.2 26.7-33.6 57.8-66.4 77.2-31.9 20.4-50.2 35.8-50.2 35.8Z"/><path fill="#8c6228" d="M1186.4 399.4s-12.4 26-14.2 46.1c-.3 4.9-1.5 8.7-1.5 14.3-.3 18 1 38.2-3 47.6-1.6-3.8-2.3-6.3-3.8-7.8-2.3 6.3-6.4 26.2-9.7 33.6-1.6-4.8-4.9-21.7-4.6-41.5s.8-23.7.8-27.8c-.8 6-4.9 14.3-6.4 19.1-2.3-4-4.9-9.4-7.9-13.8-1.8 3-4 7.4-6 9.7-.4-1.8-1.1-6.7-1.6-13.5-.3-7.9-.7-18-.3-20.2.8-4 7.2-20.1 20.7-34.8 16-17.6 32.6-51.5 37.4-62s25.5-54 25.5-54h15.8l-23 52.2s-13.7 28.6-20.9 39-22.1 40.6-28.8 52.2c4.9-6.3 9-9.7 13.8-15.7 4.7-4.3 17.8-22.6 17.8-22.6Z"/><path fill="#cba94c" d="M1274.6 216.3a65.3 65.3 0 0 1-12 21.7c-9.4 11.2-29.6 26.3-39.5 38.2-9 11.7-27 43.6-18.8 81.4 3-8.2 8.7-24.5 23.7-42.8s31-39.5 39-55.9c7.9-16.5 9-29.5 9-29.5l3-3.8-1.9-8.7z"/><path fill="#a88f33" d="M1581.8 1222.5s-6.1-16.5-8-31.5 3-18-2.5-35.2c-3.3-10.5-9.4-9-11-10.5s-2.5-17.3-2.2-26-.3-19.8-1.8-24.6c-2.3-1.9-3.8-3.4-7.1-14.6-3.8-11.2-5.7-16.8-7.5-20.2s-7.1-6.3-7.1-9.7c0-6.7 6-10.1 6-12-.3-3.8-4.8-.7-6-1.8-1.5-1.8 3.8-12.7 1.8-14.3-.8-.7-6 5.7-7.4 3.8-1.6-1.8-3.4-19.8-6.1-31.8-2.6-11.7-5.3-20.2-5.6-23.7-.3-3.3-21-62.2-26-76.4a361.5 361.5 0 0 1-10.1-36.8c-1.5-7-2.6-21.7-3.4-20.1s-.3 9-1.5 8.6c-1-.3-4.8-26.2-6-30.3-1-4.1-7.5-18-9-28-1.6-10.3-4.9-36.8-7.2-54.9s-3.3-25.4-3.3-30a187 187 0 0 0-1.8-33 303 303 0 0 0-14.3-55.8c-10.1-25.5-37.2-90.8-42-107 0-4 5.3-1.8 5.3-1.8s13.2 33 23 58.5c9.3 25.5 18.3 48 20.6 50.3 1.8 2.2 16 27.3 22.4 68.2s8.7 78.7 12.5 104c1.8 12 3.3 24.7 7 37.4 4.2 13.8 10.6 28 18.9 50a330.2 330.2 0 0 1 15.3 46.8c3.4 16.8 3.4 29.6 5.3 38 1.9 7 4.6 21.3 11 42s15.7 47.1 22.1 63.6a352 352 0 0 1 19.9 75.4c1.6 15.2 7.3 67.7 5.7 83.5Z"/><path fill="#be9c44" d="m1275.3 214.5-.7 1.8s2.3.8 1.8 3.8a90.7 90.7 0 0 1-.8 12.5c-.7 5.3-2.2 9.4-2.5 12.7 0 7.1 1 15.3-9 35.7-3 5.6-4.9 10.4-6.4 13.7a40.9 40.9 0 0 1-7.9 13.3c5.3-3 24.4-15 34.1-13.3a71.2 71.2 0 0 0-23.2 21c1.5.3 8 1.5 18 0 16.9-2.6 35.7-8.7 52.2-7.4 18 1 11-21.7 11-21.7l-20.9-45.9-39.4-27.7z"/><path fill="#a17c34" d="M1378.2 557.7s-17.6-17.7-24.7-78c-7.2-60.7-5.6-150-5.6-150l-14.3-35s-3-23.1-10.5-31.8-22.1-23.2-28.8-30.3-14.3-16.9-18.8-18.4c2.3-3.8 12.4-25.2 51.4-25.5s51 21.4 55 29.3 22.5 42 29.4 107c6.3 65 6.6 69.8 5.6 92.2-.8 12.5-4.9 41.3-12 72-6.5 26.2-13.7 55.3-26.7 68.5"/><path fill="#8c6228" d="M1323 609.4a29.8 29.8 0 0 0 16.8-3.8c5.6-.3 26 2.3 41.6-17.6 1 4.5 3.8 16.8-3.3 27.8 3.8-3.8 9.4-5.4 10.1-6.4.3 5.6 5.6 22.9-16.8 64.9 6-6.7 13.2-6.4 19.6-7.1.3 7.9 4.5 34.4-6.7 48.7-7.4 9.7-19.6 6.6-19.6 6.6a38.2 38.2 0 0 0 0-6.3c-.3-4.1-1.8-8.2-.7-11a54.4 54.4 0 0 1-15.8-10.9c-13.2-12.4-30.4-33.6-31.6-49.4-1.5-17.6 14.3-21.4 14.3-21.4a16.9 16.9 0 0 1-3.3-4.1c-.8-2.6-1.6-6.7-4.6-10"/><path fill="#92723a" d="M1206 418.5s-.8-1-4.8 3.8c.7-4.8 1.5-9.4 1.8-13.8a47.6 47.6 0 0 1 7.4-11.2c-2.3 4.5-3.8 8.6-3.8 8.6s5.6-10.4 13.8-16.8c5.6-4.5 12.8-6.7 15.8-11 3.3-4.5 2.6-5.2 3.3-6 0 0 7.5-4.8 18.8-19.1l5.4-5.6c2.5-1 8.6-3.8 15.7-7.5 7.5-4 15.8-9.7 21-12 10.1-4.5 21-4 26-11.2 3.7-1 7.8-12.4 7-22.1a91.9 91.9 0 0 1 44.3 59.3c7.2 27.7-5.6 70.5-10.9 91.2s-6 36-13.5 45.3c-9.4 12.5-39.7 30-47.2 38.7-6.3 7.1-25.5 25.2-24.7 38.2.8 9.7 12.7 15 15.3 16.9s2.6 4 7.5 3 6.6-3.4 8.6-3.4c2.3.3 2.3.8 3.3.8a11 11 0 0 0 2.3-.3s-.7 13.8-33 18c-2.3.3-4.6 1-7.5 1.5 3.8-1.8 6-1.8 10.2-7.4-4.6-.8-17.6-1.6-21-2.6 1.1-1.8 4.6-6.7 7.5-9 2.6-2.2-.3-3-2.6-1.8a121.5 121.5 0 0 0-11.2 8.6c-3.8 3.4-7.2 8-13.2 12-1.8-6-1.5-17.6 5.6-25.9-1.8.3-5.3 5.6-8.7 4.6a48.3 48.3 0 0 1 1.1-16.6 75.5 75.5 0 0 1 11.7-18.8l47.6-85.1 10.2-64.5z"/><path fill="#b18e3e" d="M1203.4 422.2s-2.6 1.8 2.6 5.3c-.8 1-2.6 4.8-4.9 7.4-2.5 3-5.3 4.9-6.3 7.5-2.3 5.3-4.1 9-4.1 11.2s-.8 16.8-7.1 26.2c-2.3 3.4-4.9 9-6.7 12.8-3.8 6.6-7.1 12-8 15-1.4 5.3-2.5 19.8-2.5 19.8l4.6-5.6c-1.9 3.8-3.8 8-6.7 11 1.8-1.6 7.1-5.4 16-13.2 12.5-10.5 32-28.1 55.6-42-7.1 2.5-13.2 2.5-18 3.3 3.7-3.8 37.9-43.9 55.8-47.6a7.1 7.1 0 0 0 1.5-4.9l-15.3-1.5-31.1 6.7-4.6-24z"/><path fill="#543e26" d="M1252.9 558.7s-4.1 4.1-7.9 14.3a47.8 47.8 0 0 1-7.4-10.2c-5.6-9.4-14.3-21.4-34.5-14.6-.3-6.3-.7-9.7 0-14.2 3.4-.8 13.5-9 23.7-21a96.8 96.8 0 0 0 18.4-29.5c3-2.3 8.1-6.1 15-10.5 9.7-6.7 21.3-15.8 23.2-26-4.6 1.9-14.3 6.4-28.9 5.7 5.6-2.6 14.3-5.3 13.2-16.6l4.1-2.5a15 15 0 0 0-5.3-.8c-.3-1-.7-2.6-3.3-1.8s-3 .7-3.4 1.8c-1 .3-4.5 0-7 1.8s-9.8 8-12.5 9l2.5-4.6s-7.4.8-12.7 3c-9.7 3.4-21 9.4-32.3 15.4 1-1.9 1.5-3 2.3-3.4s2.5-.7 2.5-1-.7-3-.3-4.1a139.2 139.2 0 0 1 12-20.7 40.4 40.4 0 0 0 6.4-17.3l23.2-11.6 65.2-15 42.4 2.5-5.3 29.3-25 51.1-21.4 46.6-24.5 28.5z"/><path fill="#806031" d="M1358.6 432s-25.5 31.6-32.6 36.4c4.6-9.7 32.6-67.5 42.8-83.6-2.3-1.8-5.3-1.8 1.8-30-6 14.3-8.2 21.7-13.2 25.5s-5.6 2.6-9 2.6a6.3 6.3 0 0 0 .8-3.8s-21.4-2.6-36-2.6-43.6 7.9-59.7 14.3c-12.7 5.3-19.8 5.3-24.4 8.6-4.5 3.8-7.1 7.9-9.4 9-1.8 1-10.5 3.7-12.4 6.6-1.9 3-4.9 6.4-4.9 7.2s-.7 1.8 1.5 1c.8-.3 6.4-3.3 12.8-7.1a350 350 0 0 1 26.7-13.8c21.7-8.7 28.5-7.1 38.2-9 10.2-1.8 24.7-6 34.4-6 9.7-.3 28.1 0 32.3.7-1.8 1.5-3.3 3.4-2.5 9.7 0 1.9-1.5 3.8-3 8.2a738 738 0 0 1-18 43.6c-6.7 14.2-14.3 26.2-18 33.6s-12 27-20.2 37.5-12.4 16.8-15 19.1-21 15.8-19.6 20.7c3.4-1.1 24.5-9 39.8-26.3s18.3-27.7 30.3-37.2 21.4-25.1 27-38.2c4.7-12.1 3.6-15.9 9.6-26.7Z"/><path fill="#b6903c" d="M809.3 667.5s-3.3 13.8-11 20.6c-7.3 6.7-20.5 12.4-22 23.7-1.9 11.2 13.2 16.8 13.2 16.8s-8.2 13.5-8.2 23.7c0 10.5-.3 12.4.7 22.4a10 10 0 0 0-3 3s.8 9.7 8.2 15.8 13.8 9.7 17.6 8.2a35.8 35.8 0 0 1 1.5 3.8s5.6-14.3 9.4-26.7c3.8-12.7 7.2-11 8.7-28s18-46.7 18-46.7l11.2-25.1-18.3-14.3z"/><path fill="#685026" d="M843.5 692.2a110.4 110.4 0 0 0-10.5 12.4c-4.8 6.7-8.6 12.8-15.8 15.4s-11.7 2.5-11.2 9.7 7.1 10.1 11 13.8a17.8 17.8 0 0 1 5.5 17.3c2.3-1 6.4-2.3 10.2-10.5s30.3-58 30.3-58z"/><path fill="#d4b968" d="M948 577s2.3-6 0-10.4c-2.3-4.6-16-6-23-11.2-7-5.3-15.7-9-22.8-6.7 1-2.6 5.3-8.2 1.8-9.4-3.3-1-15.8 4.5-19.1 7.1s-11 5.6-12.4 7.5-4.1 5.3-5.7 3.8c-1.5-1.1-2.2-3.8-4.8-2.3S847 567 844.7 573s-7.4 19-23 34.1-22 24.7-17.5 30.3 6.7 1.6 7.4 6.4a41 41 0 0 1-.7 14.3c-1.9 7.9-4.9 15.3-.8 16.8 10.5 3.4 20.6-3 23-1 4.5 4-2.7 18.8 8.1 21.6 11 3 21.7-2.5 21.7-2.5l39.7-21.4 38.3-20.2 19.5-38.7-10.5-32.3z"/><path fill="#cca849" d="M910.5 669.5s-6.7-10.2 1.5-19.2 19.9-12.7 24.4-18.3a7 7 0 0 0-3.3-2.3 30.2 30.2 0 0 1 13.2-12.4 12.5 12.5 0 0 0-8.6-4.1c-7.5 0-12 4.5-18.9 4.5-6.6 0-7.4-3.3-7.4-3.3s11.2-1 10.2-6c-1-5.4-3-5.4-3-5.4s21.7-9 25.4-13.8 3.4-10.5 4.1-12.7c2.6 0 17.6-8 23.7-4.6s1.8 12.4 1.8 12.4 18.4-13.8 27.8-27.3c8.2.8 12-5.6 18-5.6 7.4 0 19 10.2 21.4 31.8 1.5 12.5 3.7 19.6 1.5 41.6-1 12.5-.8 39 3 52.2 2.5 10.5 8.6 9.4 8.6 9.4a17 17 0 0 1-5.3 8.2c-4.1 3.8-4.5 13.8-4.1 17.6a75 75 0 0 0 2.3 8.2s-4.9 5.6-6 9.4c-1.1 3.8-6.1 6.4-9.8 6.4s-1.8-.3-6.7 0-6.3 1-9.4 0-5.3-2.3-4-12c1-9.7-37.5-32.3-37.5-32.3z"/><path fill="#585136" d="M838.1 765.3s13.8 18.4 70.6 18.4c27 0 36.4-2.6 42-4.1 6-1.5 28.8-10.5 51.7-37.5 20.6-24.4 16-34.4 16-34.4l-12-1.8-39 5.3-115.3 49.1z"/><path fill="#252211" d="M880.5 769.9s-49.2 10.9-49.2-20.2c0-30.3 30.4-62.2 38-67.8 7.8-5.6 26.6-12 26.6-12h45.4l8.6 22.9-3.8 49.5z"/><path fill="#c3b378" d="M925.8 679.2s-9.4-8.7-30.8 3-38.7 36-39.7 58c-1 19.6 16 34.2 42.8 35a136 136 0 0 0 37.9-3l-9.4-11.7z"/><path fill="#e6d89c" d="M916.6 684s-2.3-1.8-9 1.8c-5.6 3-13.8 11-20.2 16.6-4.1 3.3-6.7 4.8-9 7.4-9.4 11.2-17.3 29.6-12.7 38.7s19.5 19.6 57.8 12.4l-7-76.9Z"/><path fill="#252211" d="M904.1 702.8s-6 9.4-6 24.5c0 15.3 8.6 39.7 40.5 41.5 24.4 1.5 40.8-35.2 58.5-49.4 13.5-11 21.7-11.3 21.7-11.3s-13.8-15-50.7-34.4c-36.4-19.6-77.2-22.2-99.3 7.9 10.5-.8 44.3-9.4 44.3-9.4l16.5 5.3z"/><path fill="#6f674d" d="M951.8 722.7c-1.1-2.3-1.9-5.3 2.5-6s6.4-.4 8 3 3 6 .7 7.4c-2.3 1.2-8.2 0-11.2-4.4m-7.2-21.4s-1.5 1-.7-1c.3-2.6 2.3-7.2 7.1-6.1s3.8 6.4 3 7.9-4.8 4-7.9 3a2.5 2.5 0 0 1-1.5-3.8"/><path fill="#ac924c" d="M534 711s12 9 26 8.7c13.7-.4 31.5-14.6 39.7-23.7 4.8-5.3 9-11 13.5-15.3 3.8-3.8 6.4-5.7 8.2-8.2 2.6-3 5.3-8.7 6.7-10.5-3.4 2.6-8.2 7.1-13.2 10.2-4.9 3-15.4 8.6-19.6 10.1a1678 1678 0 0 0-46.6 24z"/><path fill="#9f8e57" d="M552.3 599s6.7-4.6 19.6-7.5c12.5-3 37.5-5.3 37.5-5.3l20.6 9 8.2 31-15 32.4-19.1 12-21.7-35z"/><path fill="#eac970" d="m525.3 626.7-7.1 5.3s1.8-3.3 3.3-13.5 9.5-34.9 21-49.1 11.2-13.5 11.2-13.5a7.6 7.6 0 0 0-6 1.5c1.5-3.4 11.2-15.4 20.9-21.4s13.5-7.9 23.6-3 12.8 7.4 20.2 7.1 13.8-8.2 13.8-8.2 1.5 4.9-4 16.1-27.8 34.1-27.8 34.1l-46.2 31.6z"/><path fill="#d7bc6b" d="M559.5 595.1s33.3 4.6 43.5-4.8c.3 1 1.5 1 1.5 1.8a2.7 2.7 0 0 1-.7 1.5 24.4 24.4 0 0 1 3.3-.3 19.7 19.7 0 0 0 4.1.8 23.7 23.7 0 0 0 3.3-.3 5.7 5.7 0 0 1-2.2 3.8c1.5 0 3 .3 3 1.5s.3 4.8-1.6 5.6a6.9 6.9 0 0 1-4.5-.3 18.7 18.7 0 0 0 2.3 8.2c3 5.6 9.4 12 18 10.1 0 0 4.5 11-14.6 35.2-2.6 3.4-5.3 8-8.6 11.7a44.3 44.3 0 0 0-3 9s32.3-12.5 41.5-40.9a214.3 214.3 0 0 0 9.4-82.8 42.6 42.6 0 0 0-3.3-16.5c-4.5-9.4-17.3-8-22.4-2.6-7.5 7.4-20 26-37.2 38.7-17.6 12.7-18.4 15-31.9 20.6Z"/><path fill="#585136" d="M519.4 636s-6.4 3.9-9.7 18c-3.3 14.6 3 32.4 6.7 38s12 21 29.3 21.7a32.1 32.1 0 0 0 12.4-2.6 78.7 78.7 0 0 0 16.8-10.5c7.5-5.6 13.5-10.4 12.8-10.9-1.8-.7-45.8-37.1-45.8-37.1L525.3 634z"/><path fill="#453a25" d="M561 696.5s9-.8 14.3-4.1-31.1-39.5-31.1-39.5l2.5 39z"/><path fill="#84754b" d="M522.3 633.3s-4.5 8.7-4.5 11c-.8 7.4 1.5 30.8 3.3 38.2 1.8 7.9 11.7 19.9 24.4 19.9 7.9 0 18.8-4.9 18.8-6.1 0-1.5-11.2-3-14.2-8.6a51 51 0 0 1-3-18c-.3-4.9-.3-10.2 1.5-12 4-4.6 4.8-17.6 4.8-17.6L568 613h-19.1l-23 14.3Z"/><path fill="#252211" d="M516.7 641.7s15-19.9 28.5-24.4 19.6-1.9 19.6-1.9l-8 20.2-11.1 12.5.7 6.3s-1.8 16.9 9.4 28.6 19.6 11.2 24.5 11.2 18.8-4.1 25.9-21c6.4-15.7 11.7-36-1-56.2-12.5-20.2-34.5-21-38.8-21s-37.6 1.7-49.7 45.7"/><path fill="#f7f7e7" d="M901.9 709.2c-5.7-2.6-.3-18.4 5.3-23.2s12.7-10.5 25.1-11.2c4.6-.3 9 2.5 8.2 5.6-1 5.6-9 13.5-16 19-9.9 7.8-16.3 12.7-22.6 9.8"/><path fill="#f8f6de" d="M598.5 623.2c4-.3 9.4 3 10.4 7.4 1 4.9-2.6 14.6-10.4 14.6-6.4 0-9.8-8-9.8-10.2a11.6 11.6 0 0 1 1.6-5.3c.3-.5 1-5.8 8.2-6.5"/><path fill="#d4c38b" d="M539.3 626.7s-10.5 4.8-15.3 15a39.8 39.8 0 0 0-3 24c.7 3.8 4.5 13.2 7.1 16.5s6 5.6 8.6 5.3 8-7.1 8-11.2.2-21.4 5.2-30.8c4.4-9.4-10.6-18.8-10.6-18.8"/><path fill="#e2d59d" d="M540.8 626c-1.8 1-4.8 2.5-4 4.5.7 1.8 7 3 9.3 7.4 2.6 4.6 2.6 9.4 1.8 11.7a18.5 18.5 0 0 0 5.3-3.8c3.4-3.8 7.5-9 11-9 2.2 0 4.5 1.1 6.6 1.1 3.4 0 6.7-1 7.2-4.6.7-4.5-6.4-8.6-10.5-7.8.8-3 1.8-7.5-1.5-10.5s-13.8 2.3-16 3.8-9.2 7.1-9.2 7.1"/><path fill="#cbac5a" d="m781.9 944.6 22.4-6.6 6.4 4.6s4.5 9.7 11.7 10.9c-2.3 4.8-8.2 9-8 12.4s3.4 6 3.4 6-20.2 33.5 19.6 67a630 630 0 0 0-27.8 12c4.6 1.1 14.3 3 18.4 6.8s4 4.8 7.9 7 6 5.4 5.3 6.8c-2.6-1.6-11.3-6.1-12.8-1.9s-37.4 2.6-37.4 2.6l-60.7 11.7s2.3-6-4.1-11.7c-7.5-6.6-16.6.3-26.3-7.1-12.7-9.7-13.2-21-17.3-25.2 4.1-2.6 12.5-6.4 32.4-9-.8-1.5-3.4-6-1.9-10.2 1.9-5.3 9.4-8.6 7.2-15 3.3-.7 4.8-.7 13.2-11.2 7.9-10.4 12.7-12.7 18.8-13.5s9.7 0 21-10.4c7.8-7.5 5.2-13.8 5.2-13.8s5.2-1.7 3.4-12.2"/><path fill="#d6bc6f" d="M715.6 948c.3-1.5 1.5-2.3 9.7-1.5s60-4.9 74.2-5.6c14.2-1 64.4-.3 88.9 4.8s49.1 11.2 61 14.3c12 3.3 15.9 4.5 15.4 6-.3 1.6-3 3-4.5 2.6-1.5-.3-41.3-12.4-53.6-15s-54.7-9.4-78-9c-21.7.3-30.3-.3-48.7 1.8-18.3 2.3-48.7 5.4-57.8 4.1-9-1-7.1-1-6.6-2.5"/><path fill="#dfc677" d="M837.7 1066.9s31 16.8 42.3 37.5c8.2 15.3-4.8 22.9-4.8 22.9s17.6 0 15.3 9.7c-1 6-30.4 22.4-50 31-19.8 8.7-19 8.3-28.7 9.8-9.5 1.5-35.2-3-40.6 4.5s-3 15.4-1.5 16.6c1.5 1 13.8 2.6 13.8 2.6s-2.6 7-28 7.9-31.9 2.5-33.4 5.3c-1.5 2.5 4.8 1 16.5 3 11.7 1.8 28 3 28 3s-5.2 4.5-19 8.2c-15.8 4-40.5 7.8-48 12.4 3.8 2.6 9.4 6.4 12 6.7a76 76 0 0 0-16.8 6c2.3 1.6 5.3 3.4 5.3 3.4s-12.7 15.3-20.2 19-50.2 23.7-64.9 20c-36.7-9.8-41.3-50-50.2-53-13.5-4.5-19.9 4.6-31.9-1.8 5.3-3.8 8.2-6 13.8-8.6-6-3-37.4-23-37.4-23a232.7 232.7 0 0 0-11-20.9c-6-10.5-15-24.4-21.7-36.7-14.5-27-15.3-39.5-28.5-54.8 2.3-3 10.2-2.6 10.2-2.6l110.6 36.5L765 1137l51-72.8z"/><path fill="#c4a859" d="M547.2 1178a17.2 17.2 0 0 0 4 3.3c3.9 2.6 9.5 5.6 13.3 10.1 1.5-2.2 5.3-6.3 12 0s15 1.9 20.1 3.4c5.3 1.8 5.6 2.6 5.6 2.6s3-2.6 9.8-5.4c4-1.5 9-2.5 14.2-4 4.9-1.1 10.2-2.6 13.8-2.6 3.4 2.3 15.3 15 63.4-3.8 45.4-17.6 55.9-19.6 63.4-16.9.8-1.8 1.6-5.3 13.2-4.8 0-4.9-9.7-21.4-9.7-21.4l-53.5-18.3h-29.3l-87.8 16L551 1164z"/><path fill="#927d49" d="M517.9 1147.2s1 8.1 13.2 16.8c12 8.6 15.8 13.8 15.8 13.8s2.3-3 4-6c1.9-3.4 3.4-7.2 6.4-8.3 6.1-2.5 20 2.3 23 1.5 2.5-.7 1.8-6 4.5-6 6.4-.3 10.5 4 12.7 4s8-.2 8.7-1.4 1-13.8 9.7-20a26 26 0 0 1 24-2.2c0 2.3.3 8 6.4 8.2s6.6-.8 12 1 11.6-.2 14.5 8.7c2.6-.7 8.7-1.5 7.1-10.2 3-2.2 5.7-3.7 12-12.7 1.6-2.3 4.1-4.8 6.1-8.2 5.3 0 11.7-1 20.2 6.4-2.6 1.8-4.1 3-4.9 4.8a54.6 54.6 0 0 1 6.1 7.2c2.3 3 3.8 6.6 6.7 7.4 6.3 1.8 16.8-.8 28.5 0 11.2.8 20.6 4.9 24.7 7.4 1.5-.7 1.5-1 5.3-.3s6.7 1.1 2.6-3.8c2.3 1.1 4.9 3.4 7.1 1.1s4.1-5.6 10.5-6.4 8.7.3 11.2-6.3c3.4-8.2-8.2-8.2-8.2-8.2s5.4-4.9 11.3-11.2c7.1-6.7 15.3-15.4 17.3-26 3.3-19.6-15.8-22.1-15.8-22.1l-92.7 28.5-113.3-5.6z"/><path fill="#6e6342" d="M434.6 879.4s-3 3.8-4.8 12.7-1 8-2.6 14.3-20.2 69.8-13.2 91.2 19.1 29.3 26.7 46.5c1.5 3.8 3 6.1 3.8 9.5 2.6 11.2.3 19.8 3.3 31 1 3.8 3.8 8.2 8 12.8 9 9.4 23.6 18.3 30 24.7 8.9 9.4 21.6 28.5 37.8 30.4 8.7 1 21-2.6 31.1-8.7 9-5.6 14.6-13.5 24-18 6.7-3.3 13.8-4.5 20.2-6 13.2-2.6 25.2-3 32.3-1.6 11 2.3 36.7 10.2 51 10.2a138.7 138.7 0 0 0 33.1-4.6c21.7-6.3 48-17.3 65.2-22.1 10.2-3 18.4-3.8 26.7-5.6 14.3-3.4 26.3-8 33.1-16.6-4.5-5.3-10.2-13.5-40.5-13.2-34.4.8-74.2 20-93.8 23s-28 5.6-49.9-2.3c-21.4-8-22.1-13.3-22.1-13.3s-22.5-15.7-31.9-55.8 0-69.3 24.4-97c6.4-7.2 4.9-13.6 4.9-13.6s16-21.7 11.7-42c-4.9-20.2-36-16-36-16z"/><path fill="#39331f" d="M460.6 947a15.7 15.7 0 0 0-1.9 8.1c.3 4 1.6 9.4 13.8 21.4 10.5 10.5 8.2 22.1 8.2 22.1s5.3 1 19.6-5.6c11.2-5.3 15 4.1 15 4.1a31.7 31.7 0 0 1 10.5-3.3 23 23 0 0 0 9.4-3s13.2 13.5 24.7 19.8c10.5 5.6 16.5 9.4 21.7 5.6 4.9-3.3 4.9-10.1 4.5-13.2a39.4 39.4 0 0 0-4.5-7.8c-3.3-4.9-8.6-10.5-9-15-.8-10.5 7.9-23 6-26s-8.6-3.8-25.4 2.3c-17.5 5.8-92.7-9.6-92.7-9.6Z"/><path fill="#292311" d="M500.3 1014.7s-8.6-8.2-5.6-48a49.4 49.4 0 0 1 11 1.1s4.6 30.8-5.4 47"/><path fill="#252211" d="M438.7 849a23.7 23.7 0 0 0 3.4-3c-3 5.7-16.9 28.1-5.7 63.5 11.3 35.2 39.5 61.4 74.2 62.6s53-15.8 73.9-41.2c8.2-10.2 17.6-23 26-31.6 12.4-13.5 22-17.3 22-30.3 0-26.7-27.2-38.7-67.4-50.7s-76.5-10.5-95.3-2.3c-18.3 9-26.2 18.4-31 33Z"/><path fill="#3f3824" d="m567.8 1026.7 3-1.5s.8-12 5.6-11.7c4.9.8 7.1 7.1 6.7 9.4-.3 2.3-1.5 6-6.4 5.6-6.4.2-9-1.8-9-1.8Z"/><path fill="#2d2815" d="M554.3 975.7s3-1 6.7 2.6c3 0 16-1.5 20.2 1s5.3 5 5.3 5-15.4 3.3-23.7 0c-8.5-3-8.5-8.6-8.5-8.6"/><path fill="#82764f" d="M621.8 978c0-.8-8.2-6.4-16.8-8.2-1.5-.3-1.8.8-3 .8-.8-.3-1-2.6-1-2.6l-5 2.6s-.8 1 1.8 3c2.3 1.8 6 3.3 7.2 6.3s1 4.1 1.5 4.6c.3.3 5.6 0 8.2-1.5s7.4-4 7-5Z"/><path fill="#2d2816" d="M545.2 1008.8s1.5-10.5 11.7-11c10.5-.7 12.4 9.5 12.4 9.5l-6 6c0-.1-4.6-6.5-18-4.5Z"/><path fill="#574f35" d="M611.2 963.7s-5.6 6.1-18 8c-1.1-1.6-3.4-4.6 0-9.5s7-6.3 10.9-4.8a8.9 8.9 0 0 1 7.1 6.3"/><path fill="#82764f" d="M634.1 971.2c.3-1.5-.7-1.8 0-2.6s4.9-2.3 5.6-1.5c.3.3 0 1.5 0 3s0 3-.7 4c-1.1 1.6-4.1 2.3-5.6 1.9s-1.9-2.6-1.9-3c.8-.3 2.6-1 2.6-1.8m25.9-16.4c0-.8 2.6-2.3 4.1-2.3 2.3 0 2.3 1.8 2.6 2.3.7.3.7-.3 1.5 1s1.8 3.8 1 5.4-3.7 2.5-4.5 2.2c-1-.7-4.4-7.5-4.7-8.6"/><path fill="#6e6342" d="M607.9 974.7s3.3.7 7.9 4.5l-3.8 2.3s-.3-3.5-4.1-6.8"/><path fill="#585136" d="M600.4 941.3c-.7-.8 2.3-2.6 4.1-2.3s2.6 1.5 4.6 1.8 2.2-.7 3-1.5 3.3-.3 3.8 0a8.5 8.5 0 0 1 .7 1 4.2 4.2 0 0 1 1.5-3 4.8 4.8 0 0 1 4.1-.7c.3 1 1.8 4.9 1.5 5.6s-4.8 1.9-5.6 1c.8 2 4.1 5.7 4.6 6.5s-3.4 2.5-4.9 2.2a61.9 61.9 0 0 1-17.4-10.6m19.9-25.2a3.5 3.5 0 0 0-1.5-1.8c-1-.3-4.6 0-4.6 1.8s3 12 6.4 17.3c3.8 5.3 6.4 9.7 9 11a3.5 3.5 0 0 0 4.5-1.6c.3-.8 1-6.4.8-19.6s-.8-25.9-1.6-26.7-3.7-.7-4.8.8-7.9 16.5-8.2 18.8"/><path fill="#574f35" d="M606.8 993.8s-5.3-3.4-10.5-1c-4.8 2.2-4.5 11.2-4.5 11.2a7.2 7.2 0 0 0 6.7-.8c3.3-2.3 7.5-6 8.3-9.4"/><path fill="#82764f" d="M616.8 1005.8c-.3-3-3-3-3-4.6a3.4 3.4 0 0 1 3.3-2.6c1.6 0 3 1.9 4.9 3 1.8 1.1 4.6 3 4.9 5.3s-3 8.7-6.7 8.7-2.6-6.8-3.4-9.9Zm29.3-4.1s-6 1.8-5.6 0 1.8-2.3 3.8-2.3a6 6 0 0 1 3.8-1.8 3.3 3.3 0 0 1 2.2.7s4.1-1.8 5.3-.7.3 1 1.1 2.2a10.7 10.7 0 0 1 1.8 4.6c0 1.2-4.5 3.8-8.2 3.3-4.2-.9-3.5-5.3-4.2-6m35.3-6.9s1.8 1.1.3 2.3c-1 1-6.3 3-10.9 3.4-4.5 0-8.6.7-8.6-.8s3.8-4.6 6-5.3a4.8 4.8 0 0 1 3.8-1.8c1.8 0 9-.8 11-1 1.8-.4 3.3.7 2.2 2.2-.4 1-3.8 1-3.8 1M692 948s-2.3 4.9-4.8 4.9c-2.6-.3-2.6-1.1-2.6-1.9 0-1 2.5-3.8 2.2-4.5-.7 0-2.5 0-2.2-1.8 0-1.6 2.5-3.4 4.8-3a10 10 0 0 1 6-2.3c2.7 0 5 .7 5 2.3s-3 4.8-4.2 5.6c-1.2 1.2-2.7 2-4.2.7m-34.6 89.7s-3 .3-3 1.8c0 .7.8.7 1.8.3a8.2 8.2 0 0 0 1.8-.3c.4.3.4 1.8 2.6 1.8a14.4 14.4 0 0 0 5.3-1.8c1.9-.8 3.4-1.5 3.4-3-.8-2.6-2.3-3.8-4.6-3.8a6 6 0 0 0-3.3.7s-.8-1.5-3.3 0-2.3 1.5-1.6 2.3c1.4 1.2 1 2 1 2Zm-17.1 15.7c0-.7 3.8-2.3 4.8-1.8 1 .3 4.1 6 4.1 6.7 0 .7-3.8 2.6-5.3 2.6s-4-2.6-4-3c0-.3 1.7-.8 1.7-1.1.5-.7-1.3-2.6-1.3-3.3Zm-12-22.1c.7-.3.7-1 1.8-1.8a2.6 2.6 0 0 1 2.3-.3 3.7 3.7 0 0 1 2.6-1.9c1.8-.3 3.3 0 3 .8 0 2.3 1.5 3.8 1.5 5.6s-1 4.1-4.9 5.6c-3.8 1-9 1-9.7.8s-1.5-3.4-.8-4.9 3-3.2 4.1-4Z"/><path fill="#6e6342" d="M633 1032.3s-2.6 1.5-2.6 2.3a6.7 6.7 0 0 0-.3 2.3c0 .4 3.4-.3 3.8-.8.2-.3-.9-3-.9-3.8"/><path fill="#585136" d="M610.4 1025.2c1.6.3 4.1 0 6.1.7 1.5.8 2.6 2.3 1 4.1s-3 4.6-6.3 4.1c-3.8-.3-7.4-2.2-7.4-3.8a7.3 7.3 0 0 1 1.8-5.3c1.5-1.2 2.3-.4 4.8.2"/><path fill="#574f35" d="M608.6 1026.7s-4.8 3.8-6 5.6c-1.6 1.8-9 11.2-11.3 13.2a28.6 28.6 0 0 1 2.6-3.8 15.5 15.5 0 0 0-6.4 8.2c-1.8 5.6 10.2 8.7 18 11s11 3 11 3a84.7 84.7 0 0 1-7.4-13.9c-3-7-4.6-7.8-2.6-11.2 1.5-3.3 3.8-5.6 3.8-8.2z"/><path fill="#252211" d="M435.7 1038.7a9.2 9.2 0 0 0 3.3 0c2.3-.3 26-9 50.7-7.4a271 271 0 0 1 54.8 9c31 8.1 69.7 24.4 94.8 33.6 6.6 2.6 13.2 7.2 18 9 19 7.4 19.8 7.4 31 9.4 13.3 1.8 26.8-2.6 40.9-5.6 17.3-3.8 46.8-5.6 72.8-9.4a148.7 148.7 0 0 0 24.7-5.6s-20.6 20.6-70 28a219.3 219.3 0 0 1-60.5.8 184.2 184.2 0 0 1-34-6.1c-9-2.6-27.4-9.4-50-15-15.8-4.1-33.4-7.1-53.5-11-49.8-9-103.8-19.5-123-29.6Z"/><path fill="#cfb66c" d="M379.9 945a864.3 864.3 0 0 1-37.2 29.2l-37.5 28.8c-12.7 9.4-25.2 19.1-38 28.5s-25.4 18.4-39 27c12-10.1 24.8-19.6 37.6-28.8s26-18.3 38.2-27.7l37.5-28.8c12.9-9.4 25.3-19.1 38.4-28.2m-66.3 106s13.5-11.2 30.3-27c21-19.5 46.6-44.6 54.8-49.1z"/><path fill="#cfb66c" d="M313.6 1051.1a488 488 0 0 1 20.9-19.6l11-9.4c3.3-3 7-6.3 10.4-9.7 6.7-6.6 13.2-13.8 19.9-20.6a127.5 127.5 0 0 1 10.4-9.7 28.3 28.3 0 0 1 6-4.1c2-1 3.9-3 6.5-3.3-1.5 2.2-3.4 3.3-4.9 5.3-1.8 1.5-3.3 3.3-4.8 4.8-3.4 3.4-7.2 6.4-10.5 9.4-7.1 6.1-14.6 12-21.7 18.4s-13.8 13.2-21 19.5c-7.7 6.6-14.8 13-22.2 19m90.7-60.7s-49.5 48.4-59.6 56.3Z"/><path fill="#cfb66c" d="M404.3 990.4A161.5 161.5 0 0 1 390 1005l-15 14.3c-4.8 4.8-9.4 9.7-14.6 14.5-5.3 4.6-10.1 9-15.7 13.2l14.5-14.2c4.9-4.9 10.2-9 15.4-13.8l14.5-14.3c5-5 9.9-9.9 15.2-14.3m2.2 26.3a315.4 315.4 0 0 1-16 37.2c-12.8 25.4-31.9 57.3-40.2 73.5z"/><path fill="#cfb66c" d="M406.6 1016.7c0 5.6-1.6 10.5-3.4 15.3a150.7 150.7 0 0 1-6 14.3c-2.3 4.5-5 9.4-7.5 13.8s-5.6 9-7.9 13.5l-15.3 27c-5.3 9-10.5 18-16 26.7 3.7-9.7 8.9-18.8 13.7-27.8 5.3-9 10.2-18 15-27.3a153.9 153.9 0 0 0 6.4-14.2c2.3-4.9 4.5-9.4 6.4-13.8 2.2-4.9 4-9.5 6.3-13.8 2.6-4.8 4.7-9.3 8.2-13.7Z"/><path fill="#dec270" d="M460.6 1141s-15 20-13.5 45.1c4-13.2 9.2-33.3 13.5-45m14.2 20s-5.3 54-9.7 80.6c6.2-30.7 7.4-28.2 9.7-80.6m99.4 83.7s-22.5 66-23 84.4c5-18.9 14.3-57.4 23-84.4"/><path fill="#cbaf59" d="M626.7 1137s36.4 60 63.7 111.3c-7.4-25.8-24.4-73-63.7-111.3"/><path fill="#e3c677" d="M724.5 1225.4a1104.5 1104.5 0 0 1 54 109.1 166 166 0 0 0-54-109"/><path fill="#ecd592" d="M1012.1 1314c6.1-3.8 18-24.4 28.6-29.6 10.4-5.3 18.3-6.4 27.7-16.8 9.4-11 12-17.6 32.6-26.3 28.9-12.4 9-28.5 9-28.5a93 93 0 0 1 10.2-8.6c7.4-5.6 16-12.5 15.3-24.5-1-20.1-4.8-49.4-21.4-66.4 16.1-3.3 46.9-5.6 66-10.5 22.2-5.6 32.3-13.5 32.3-13.5s-12.7-21.7 8-43.5 37.4-34.9 49.8-59.3c-14.2-1.8-36-9.4-91.4 11.7a69.6 69.6 0 0 1 8.6 4.8s-34.1 9.4-46.6 19.9c-21.7 18.3-24.4 33.4-47.9 44.6s-47.2 8.2-66.7 17.3-22.5 16.8-29.6 20.2c1.5 1.8-.3 4.8 2.6 7.4-1.9 2.6-12.5 19.9-23.3 19.9 1.1 4 10.2 7 10.2 7s-6.7 5-23.7 6.2c8.7 9 16.9 18.8 39.5 33-1.8 3.8-9.4 9.4-6.4 16.6 3.4 7.1 12 16.8 46.6 24.7-17.6.7-38.2 4.8-66 1-27.8-3.3-32.3-5.3-49.5-1 1.9 1.8 6.7 1.8 11 6.7-4.6.3-33.1-3.4-42.8 9.4a82.7 82.7 0 0 0-13.8 49.4c-5.3 2.6-10.5 7.2-8 16.6s16.2 12.4 24.8 18.3c8.7 6.4 9.4 8.7 17.6 7.1 8.7-1.8 21.4-10.4 28.8-10.4s12.8 5.6 12.8 5.6 20.2-9.7 22.1-7.9c1.8 1.8.3 13.5 2.3 15.3 2 1.4 24.7-12.1 30.8-15.9Z"/><path fill="#fff" fill-opacity=".8" d="M1453.1 707C1358.3 462 1124 416.6 1124 416.6H455.2l2.6 249.4H591v557H455.2v249h650.2c156.7 0 282.3-157.5 282.3-157.5 201.2-285.5 65.4-607.6 65.4-607.6ZM1109 1146.6s-51 73.6-106.5 73.6h-111l-2.6-553.6h142.5s66 13.8 112 144.4c0 0 61.2 187-34.4 335.6"/></svg>