<svg width="51" height="43" viewBox="0 0 51 43" fill="none" xmlns="http://www.w3.org/2000/svg">
<path fill-rule="evenodd" clip-rule="evenodd" d="M47.3571 27.8116C52.2143 25.0064 52.2143 17.9936 47.3571 15.1884L22.7679 0.98728C17.9107 -1.81788 11.8393 1.68858 11.8393 7.2989V11.2962L5.46429 7.61446C3.03572 6.21189 9.23091e-07 7.96511 9.23091e-07 10.7703L0 32.2297C-8.51576e-08 35.0349 3.03571 36.7881 5.46429 35.3855L11.8393 31.7038V35.7011C11.8393 41.3114 17.9107 44.8179 22.7679 42.0127L47.3571 27.8116ZM11.8393 11.2962L11.8393 31.7038L24.0429 24.6558C26.4714 23.2532 26.4714 19.7468 24.0429 18.3442L11.8393 11.2962Z" fill="#FF4151"/>
<path fill-rule="evenodd" clip-rule="evenodd" d="M47.3571 27.8116C52.2143 25.0064 52.2143 17.9936 47.3571 15.1884L22.7679 0.98728C17.9107 -1.81788 11.8393 1.68858 11.8393 7.2989V11.2962L5.46429 7.61446C3.03572 6.21189 9.23091e-07 7.96511 9.23091e-07 10.7703L0 32.2297C-8.51576e-08 35.0349 3.03571 36.7881 5.46429 35.3855L11.8393 31.7038V35.7011C11.8393 41.3114 17.9107 44.8179 22.7679 42.0127L47.3571 27.8116ZM11.8393 11.2962L11.8393 31.7038L24.0429 24.6558C26.4714 23.2532 26.4714 19.7468 24.0429 18.3442L11.8393 11.2962Z" fill="#FF4151"/>
<path fill-rule="evenodd" clip-rule="evenodd" d="M47.3571 15.1884C52.2143 17.9936 52.2143 25.0064 47.3571 27.8116L22.7679 42.0127C17.9107 44.8179 11.8393 41.3114 11.8393 35.7011V31.7038L24.0429 24.6558C26.4714 23.2532 26.4714 19.7468 24.0429 18.3442L11.8393 11.2962V7.2989C11.8393 1.68858 17.9107 -1.81788 22.7679 0.98728L47.3571 15.1884Z" fill="#FF4151"/>
<path fill-rule="evenodd" clip-rule="evenodd" d="M47.3571 15.1884C52.2143 17.9936 52.2143 25.0064 47.3571 27.8116L22.7679 42.0127C17.9107 44.8179 11.8393 41.3114 11.8393 35.7011V31.7038L24.0429 24.6558C26.4714 23.2532 26.4714 19.7468 24.0429 18.3442L11.8393 11.2962V7.2989C11.8393 1.68858 17.9107 -1.81788 22.7679 0.98728L47.3571 15.1884Z" fill="#FFE1E1"/>
</svg>
