<svg width="143" height="124" viewBox="0 0 143 124" fill="none" xmlns="http://www.w3.org/2000/svg">
<path fill-rule="evenodd" clip-rule="evenodd" d="M134.5 76.7193C145.833 70.176 145.833 53.8177 134.5 47.2744L58 3.10713C46.6667 -3.43618 32.5 4.74298 32.5 17.8296V33.9954L13.5 23.0257C7.5 19.5616 2.58657e-06 23.8917 2.58657e-06 30.8199L0 93.1738C-2.10389e-07 100.102 7.5 104.432 13.5 100.968L32.5 89.9983V106.164C32.5 119.251 46.6667 127.43 58 120.887L134.5 76.7193ZM32.5 33.9954L32.5 89.9983L67.5 69.7911C73.5 66.327 73.5 57.6667 67.5 54.2026L32.5 33.9954Z" fill="#8BC3F5"/>
<path fill-rule="evenodd" clip-rule="evenodd" d="M134.5 47.2744C145.833 53.8177 145.833 70.176 134.5 76.7193L58 120.887C46.6667 127.43 32.5 119.251 32.5 106.164V89.9983L67.5 69.7911C73.5 66.327 73.5 57.6667 67.5 54.2026L32.5 33.9954V17.8296C32.5 4.74298 46.6667 -3.43618 58 3.10713L134.5 47.2744Z" fill="#FF6B78"/>
<path fill-rule="evenodd" clip-rule="evenodd" d="M134.5 47.2744C145.833 53.8177 145.833 70.176 134.5 76.7193L58 120.887C46.6667 127.43 32.5 119.251 32.5 106.164V89.9983L67.5 69.7911C73.5 66.327 73.5 57.6667 67.5 54.2026L32.5 33.9954V17.8296C32.5 4.74298 46.6667 -3.43618 58 3.10713L134.5 47.2744Z" fill="white"/>
<path fill-rule="evenodd" clip-rule="evenodd" d="M134.5 47.2744C145.833 53.8177 145.833 70.176 134.5 76.7193L58 120.887C46.6667 127.43 32.5 119.251 32.5 106.164V89.9983L67.5 69.7911C73.5 66.327 73.5 57.6667 67.5 54.2026L32.5 33.9954V17.8296C32.5 4.74298 46.6667 -3.43618 58 3.10713L134.5 47.2744Z" fill="#FF6B78"/>
<path fill-rule="evenodd" clip-rule="evenodd" d="M134.5 47.2744C145.833 53.8177 145.833 70.176 134.5 76.7193L58 120.887C46.6667 127.43 32.5 119.251 32.5 106.164V89.9983L67.5 69.7911C73.5 66.327 73.5 57.6667 67.5 54.2026L32.5 33.9954V17.8296C32.5 4.74298 46.6667 -3.43618 58 3.10713L134.5 47.2744Z" fill="white"/>
</svg>
