<svg xmlns="http://www.w3.org/2000/svg" width="149" height="165" viewBox="0 0 149 165" fill="none">
<path d="M2.37789 7.44074L2.37856 7.44249C5.66547 15.925 15.5455 41.4248 26.3481 69.3058C41.4525 108.289 58.3605 151.928 61.5719 160.214C62.1229 161.644 63.4915 162.571 65.0093 162.571H65.0323H65.0555H65.0788H65.1023H65.1259H65.1497H65.1736H65.1976H65.2219H65.2462H65.2707H65.2954H65.3201H65.3451H65.3702H65.3954H65.4207H65.4462H65.4719H65.4977H65.5236H65.5496H65.5758H65.6022H65.6286H65.6553H65.682H65.7089H65.7359H65.763H65.7903H65.8177H65.8453H65.873H65.9008H65.9287H65.9568H65.985H66.0133H66.0418H66.0703H66.099H66.1279H66.1568H66.1859H66.2151H66.2445H66.2739H66.3035H66.3332H66.363H66.393H66.4231H66.4532H66.4835H66.514H66.5445H66.5752H66.6059H66.6368H66.6678H66.699H66.7302H66.7616H66.793H66.8246H66.8563H66.8881H66.92H66.952H66.9842H67.0164H67.0487H67.0812H67.1138H67.1464H67.1792H67.2121H67.2451H67.2782H67.3114H67.3447H67.3781H67.4116H67.4452H67.4789H67.5127H67.5466H67.5806H67.6147H67.6489H67.6832H67.7176H67.7521H67.7867H67.8214H67.8562H67.891H67.926H67.9611H67.9962H68.0314H68.0668H68.1022H68.1377H68.1733H68.209H68.2448H68.2806H68.3166H68.3526H68.3887H68.425H68.4613H68.4976H68.5341H68.5706H68.6073H68.644H68.6807H68.7176H68.7546H68.7916H68.8287H68.8659H68.9031H68.9405H68.9779H69.0154H69.0529H69.0906H69.1283H69.166H69.2039H69.2418H69.2798H69.3179H69.356H69.3942H69.4325H69.4709H69.5093H69.5478H69.5863H69.6249H69.6636H69.7023H69.7412H69.78H69.819H69.858H69.897H69.9361H69.9753H70.0146H70.0539H70.0932H70.1327H70.1721H70.2117H70.2513H70.2909H70.3306H70.3704H70.4102H70.45H70.49H70.5299H70.5699H70.61H70.6501H70.6903H70.7305H70.7708H70.8111H70.8515H70.8919H70.9324H70.9729H71.0135H71.054H71.0947H71.1354H71.1761H71.2169H71.2577H71.2985H71.3394H71.3804H71.4214H71.4624H71.5034H71.5445H71.5856H71.6268H71.668H71.7092H71.7505H71.7918H71.8332H71.8745H71.9159H71.9574H71.9988H72.0403H72.0818H72.1234H72.165H72.2066H72.2482H72.2899H72.3316H72.3733H72.4151H72.4568H72.4986H72.5405H72.5823H72.6242H72.666H72.708H72.7499H72.7918H72.8338H72.8758H72.9178H72.9598H73.0018H73.0439H73.086H73.1281H73.1702H73.2123H73.2544H73.2965H73.3387H73.3809H73.423H73.4652H73.5074H73.5496H73.5918H73.6341H73.6763H73.7185H73.7608H73.803H73.8453H73.8875H73.9298H73.9721H74.0143H74.0566H74.0989H74.1412H74.1834H74.2257H74.268H74.3103H74.3525H74.3948H74.4371H74.4793H74.5216H74.5638H74.6061H74.6483H74.6906H74.7328H74.775H74.8172H74.8594H74.9016H74.9438H74.986H75.0282H75.0703H75.1124H75.1546H75.1967H75.2388H75.2809H75.3229H75.365H75.407H75.449H75.491H75.533H75.575H75.6169H75.6588H75.7007H75.7426H75.7845H75.8263H75.8681H75.9099H75.9517H75.9934H76.0351H76.0768H76.1185H76.1601H76.2017H76.2433H76.2848H76.3263H76.3678H76.4093H76.4507H76.4921H76.5335H76.5748H76.6161H76.6574H76.6986H76.7398H76.7809H76.8221H76.8631H76.9042H76.9452H76.9861H77.0271H77.068H77.1088H77.1496H77.1904H77.2311H77.2718H77.3124H77.353H77.3935H77.434H77.4745H77.5149H77.5552H77.5955H77.6358H77.676H77.7162H77.7563H77.7963H77.8363H77.8763H77.9162H77.9561H77.9958H78.0356H78.0753H78.1149H78.1545H78.194H78.2335H78.2729H78.3122H78.3515H78.3907H78.4299H78.469H78.508H78.547H78.5859H78.6248H78.6636H78.7023H78.741H78.7796H78.8181H78.8566H78.895H78.9333H78.9716H79.0098H79.0479H79.0859H79.1239H79.1618H79.1996H79.2374H79.2751H79.3127H79.3503H79.3877H79.4251H79.4624H79.4997H79.5368H79.5739H79.6109H79.6478H79.6847H79.7214H79.7581H79.7947H79.8313H79.8677H79.904H79.9403H79.9765H80.0126H80.0486H80.0845H80.1204H80.1561H80.1918H80.2274H80.2629H80.2983H80.3336H80.3688H80.4039H80.4389H80.4739H80.5087H80.5435H80.5781H80.6127H80.6472H80.6815H80.7158H80.75H80.7841H80.818H80.8519H80.8857H80.9194H80.953H80.9865H81.0198H81.0531H81.0863H81.1193H81.1523H81.1851H81.2179H81.2505H81.2831H81.3155H81.3478H81.38H81.4121H81.4441H81.476H81.5078H81.5394H81.571H81.6024H81.6337H81.6649H81.696H81.727H81.7579H81.7886H81.8193H81.8498H81.8802H81.9104H81.9406H81.9706H82.0005H82.0303H82.06H82.0895H82.119H82.1483H82.1774H82.2065H82.2354H82.2642H82.2929H82.3214H82.3499H82.3782H82.4063H82.4344H82.4623H82.49H82.5177H82.5452H82.5726H82.5998H82.6269H82.6539H82.6808H82.7075H82.734H82.7605H82.7868H82.8129H82.839H82.8648H82.8906H82.9162H82.9417H82.967H82.9922H83.0172H83.0421H83.0668H83.0914H83.1159H83.1402H83.1644H83.1884H83.2123H83.236H83.2596H83.2831H83.3063H83.3295H83.3525C84.8662 162.571 86.2292 161.646 86.784 160.235L86.7847 160.233C92.3328 146.064 138.628 27.8237 146.603 7.45421L146.603 7.45378C147.043 6.32781 146.913 5.04403 146.212 4.02715L146.211 4.02605C145.522 3.02911 144.388 2.42566 143.169 2.42566H143.142H143.115H143.087H143.06H143.032H143.004H142.977H142.949H142.921H142.893H142.865H142.836H142.808H142.78H142.751H142.723H142.694H142.666H142.637H142.608H142.579H142.55H142.521H142.492H142.463H142.434H142.404H142.375H142.345H142.316H142.286H142.256H142.226H142.197H142.167H142.137H142.106H142.076H142.046H142.016H141.985H141.955H141.924H141.894H141.863H141.832H141.801H141.771H141.74H141.709H141.678H141.646H141.615H141.584H141.553H141.521H141.49H141.458H141.427H141.395H141.363H141.332H141.3H141.268H141.236H141.204H141.172H141.14H141.107H141.075H141.043H141.01H140.978H140.945H140.913H140.88H140.848H140.815H140.782H140.749H140.716H140.683H140.65H140.617H140.584H140.551H140.518H140.485H140.451H140.418H140.385H140.351H140.318H140.284H140.25H140.217H140.183H140.149H140.115H140.082H140.048H140.014H139.98H139.946H139.912H139.877H139.843H139.809H139.775H139.74H139.706H139.672H139.637H139.603H139.568H139.534H139.499H139.464H139.43H139.395H139.36H139.325H139.291H139.256H139.221H139.186H139.151H139.116H139.081H139.046H139.01H138.975H138.94H138.905H138.87H138.834H138.799H138.764H138.728H138.693H138.657H138.622H138.586H138.551H138.515H138.479H138.444H138.408H138.372H138.337H138.301H138.265H138.229H138.193H138.158H138.122H138.086H138.05H138.014H137.978H137.942H137.906H137.87H137.834H137.798H137.761H137.725H137.689H137.653H137.617H137.58H137.544H137.508H137.472H137.435H137.399H137.363H137.326H137.29H137.253H137.217H137.181H137.144H137.108H137.071H137.035H136.998H136.962H136.925H136.889H136.852H136.816H136.779H136.742H136.706H136.669H136.633H136.596H136.559H136.523H136.486H136.449H136.413H136.376H136.339H136.303H136.266H136.229H136.193H136.156H136.119H136.082H136.046H136.009H135.972H135.936H135.899H135.862H135.825H135.789H135.752H135.715H135.679H135.642H135.605H135.568H135.532H135.495H135.458H135.421H135.385H135.348H135.311H135.275H135.238H135.201H135.165H135.128H135.091H135.055H135.018H134.981H134.945H134.908H134.871H134.835H134.798H134.762H134.725H134.688H134.652H134.615H134.579H134.542H134.506H134.469H134.433H134.396H134.36H134.323H134.287H134.251H134.214H134.178H134.142H134.105H134.069H134.033H133.996H133.96H133.924H133.888H133.851H133.815H133.779H133.743H133.707H133.671H133.635H133.598H133.562H133.526H133.49H133.454H133.419H133.383H133.347H133.311H133.275H133.239H133.203H133.168H133.132H133.096H133.061H133.025H132.989H132.954H132.918H132.883H132.847H132.812H132.776H132.741H132.706H132.67H132.635H132.6H132.564H132.529H132.494H132.459H132.424H132.389H132.354H132.319H132.284H132.249H132.214H132.179H132.145H132.11H132.075H132.04H132.006H131.971H131.937H131.902H131.868H131.833H131.799H131.765H131.73H131.696H131.662H131.628H131.594H131.559H131.525H131.491H131.458H131.424H131.39H131.356H131.322H131.289H131.255H131.221H131.188H131.154H131.121H131.087H131.054H131.021H130.988H130.954H130.921H130.888H130.855H130.822H130.789H130.756H130.724H130.691H130.658H130.626H130.593H130.56H130.528H130.496H130.463H130.431H130.399H130.366H130.334H130.302H130.27H130.238H130.206H130.175H130.143H130.111H130.08H130.048H130.017H129.985H129.954H129.922H129.891H129.86H129.829H129.798H129.767H129.736H129.705H129.674H129.644H129.613H129.582H129.552H129.522H129.491H129.461H129.431H129.401H129.37H129.34H129.311H129.281H129.251H129.221H129.192H129.162H129.133H129.103H129.074H129.045H129.015H128.986H128.957H128.928H128.899H128.871H128.842H128.813H128.785H128.756H128.728H128.7H128.671H128.643H128.615H128.587H128.559H128.531H128.504H128.476H128.449H128.421H128.394H128.366H128.339H128.312H128.285H128.258H128.231H128.204H128.178H128.151H128.125H128.098H128.072H128.045H128.019H127.993H127.967H127.941H127.916H127.89H127.864H127.839H127.813H127.788H127.763H127.738H127.713H127.688H127.663H127.638H127.613H127.589H127.564H127.54H127.516H127.492H127.468H127.444H127.42H127.396H127.372H127.349H127.325H127.302H127.279H127.255H127.232H127.209H127.187H127.164H127.141H127.119H127.096H127.074H127.052H127.03H127.008H126.986H126.964H126.942H126.921H126.899H126.878H126.857H126.835H126.814H126.794H126.773H126.752H126.731H126.711H126.691H126.67C125.122 2.42566 123.754 3.39137 123.217 4.83072L123.215 4.83555C118.539 17.511 84.06 110.972 74.9311 137.035L74.9189 137.069L74.9084 137.105C74.8224 137.395 74.5555 137.595 74.2529 137.595C73.9483 137.595 73.6818 137.395 73.5962 137.106L73.5872 137.075L73.5769 137.045C68.17 121.27 53.6405 80.5738 42.0461 48.2126L42.0461 48.2125C34.5539 27.3056 28.2849 9.86909 26.4838 4.86294L26.4836 4.86246C25.9569 3.40012 24.5698 2.42566 23.0163 2.42566H22.9954H22.9744H22.9533H22.932H22.9106H22.8891H22.8675H22.8458H22.8239H22.8019H22.7799H22.7577H22.7353H22.7129H22.6903H22.6677H22.6449H22.622H22.599H22.5759H22.5526H22.5293H22.5058H22.4823H22.4586H22.4348H22.4109H22.3869H22.3627H22.3385H22.3142H22.2897H22.2651H22.2405H22.2157H22.1908H22.1658H22.1407H22.1155H22.0902H22.0648H22.0393H22.0137H21.988H21.9622H21.9362H21.9102H21.8841H21.8579H21.8315H21.8051H21.7786H21.7519H21.7252H21.6984H21.6715H21.6444H21.6173H21.5901H21.5628H21.5354H21.5079H21.4803H21.4526H21.4248H21.3969H21.3689H21.3408H21.3127H21.2844H21.2561H21.2276H21.1991H21.1705H21.1417H21.1129H21.084H21.0551H21.026H20.9968H20.9676H20.9382H20.9088H20.8793H20.8497H20.82H20.7903H20.7604H20.7305H20.7005H20.6704H20.6402H20.6099H20.5796H20.5491H20.5186H20.488H20.4573H20.4266H20.3958H20.3648H20.3338H20.3028H20.2716H20.2404H20.2091H20.1777H20.1462H20.1147H20.0831H20.0514H20.0196H19.9878H19.9559H19.9239H19.8918H19.8597H19.8275H19.7952H19.7629H19.7305H19.698H19.6654H19.6328H19.6001H19.5673H19.5345H19.5016H19.4686H19.4356H19.4025H19.3693H19.3361H19.3028H19.2694H19.236H19.2025H19.1689H19.1353H19.1016H19.0679H19.034H19.0002H18.9662H18.9322H18.8982H18.8641H18.8299H18.7956H18.7613H18.727H18.6926H18.6581H18.6236H18.589H18.5544H18.5197H18.4849H18.4501H18.4152H18.3803H18.3454H18.3103H18.2753H18.2401H18.2049H18.1697H18.1344H18.0991H18.0637H18.0283H17.9928H17.9572H17.9217H17.886H17.8504H17.8146H17.7788H17.743H17.7072H17.6712H17.6353H17.5993H17.5632H17.5271H17.491H17.4548H17.4186H17.3823H17.346H17.3097H17.2733H17.2368H17.2004H17.1639H17.1273H17.0907H17.0541H17.0174H16.9807H16.944H16.9072H16.8704H16.8335H16.7966H16.7597H16.7227H16.6857H16.6487H16.6116H16.5745H16.5374H16.5002H16.4631H16.4258H16.3886H16.3513H16.314H16.2766H16.2392H16.2018H16.1644H16.1269H16.0894H16.0519H16.0144H15.9768H15.9392H15.9016H15.8639H15.8262H15.7885H15.7508H15.7131H15.6753H15.6375H15.5997H15.5618H15.524H15.4861H15.4482H15.4103H15.3723H15.3344H15.2964H15.2584H15.2204H15.1823H15.1443H15.1062H15.0681H15.03H14.9919H14.9538H14.9156H14.8774H14.8393H14.8011H14.7629H14.7247H14.6864H14.6482H14.6099H14.5717H14.5334H14.4951H14.4568H14.4185H14.3802H14.3419H14.3035H14.2652H14.2268H14.1885H14.1501H14.1118H14.0734H14.035H13.9966H13.9582H13.9199H13.8815H13.8431H13.8047H13.7663H13.7279H13.6895H13.651H13.6126H13.5742H13.5358H13.4974H13.459H13.4206H13.3822H13.3438H13.3054H13.267H13.2286H13.1902H13.1518H13.1135H13.0751H13.0367H12.9984H12.96H12.9217H12.8833H12.845H12.8067H12.7684H12.73H12.6917H12.6535H12.6152H12.5769H12.5387H12.5004H12.4622H12.424H12.3858H12.3476H12.3094H12.2712H12.2331H12.1949H12.1568H12.1187H12.0806H12.0425H12.0045H11.9664H11.9284H11.8904H11.8524H11.8145H11.7765H11.7386H11.7007H11.6628H11.6249H11.5871H11.5493H11.5115H11.4737H11.4359H11.3982H11.3605H11.3228H11.2852H11.2475H11.2099H11.1723H11.1348H11.0973H11.0598H11.0223H10.9849H10.9474H10.9101H10.8727H10.8354H10.7981H10.7608H10.7236H10.6864H10.6492H10.6121H10.575H10.5379H10.5009H10.4639H10.4269H10.39H10.3531H10.3162H10.2794H10.2426H10.2059H10.1691H10.1325H10.0958H10.0592H10.0227H9.98615H9.94967H9.91323H9.87683H9.84047H9.80416H9.76788H9.73165H9.69546H9.65932H9.62322H9.58716H9.55115H9.51518H9.47926H9.44338H9.40755H9.37177H9.33603H9.30034H9.2647H9.22911H9.19356H9.15807H9.12262H9.08723H9.05188H9.01659H8.98135H8.94616H8.91102H8.87593H8.8409H8.80592H8.77099H8.73612H8.7013H8.66654H8.63184H8.59719H8.56259H8.52805H8.49357H8.45915H8.42479H8.39048H8.35623H8.32204H8.28792H8.25385H8.21984H8.18589H8.15201H8.11818H8.08442H8.05072H8.01709H7.98351H7.95001H7.91656H7.88318H7.84987H7.81662H7.78344H7.75032H7.71727H7.68429H7.65137H7.61852H7.58575H7.55304H7.5204H7.48783H7.45533H7.4229H7.39054H7.35825H7.32603H7.29389H7.26182H7.22982H7.1979H7.16605H7.13427H7.10257H7.07095H7.0394H7.00792H6.97652H6.9452H6.91396H6.88279H6.85171H6.8207H6.78977H6.75892H6.72815H6.69745H6.66684H6.63631H6.60587H6.5755H6.54522H6.51502H6.4849H6.45487H6.42492H6.39505H6.36527H6.33557H6.30596H6.27644H6.247H6.21765H6.18839H6.15921H6.13013H6.10113H6.07222H6.0434H6.01467H5.98603H5.95748H5.92902H5.90065H5.87238H5.84419H5.81611C4.6004 2.42566 3.46284 3.02354 2.77519 4.02797C2.08862 5.03083 1.94031 6.30729 2.37789 7.44074Z" fill="white" stroke="white" stroke-width="3"/>
<path fill-rule="evenodd" clip-rule="evenodd" d="M78.3862 77.5982C77.6502 79.0701 76.1458 80 74.5 80C72.8544 80 71.3501 79.0701 70.6139 77.5982C62.3236 61.0174 43.0424 22.4543 35.4589 7.28742C34.7853 5.9402 34.8569 4.34118 35.6494 3.06044C36.4406 1.77841 37.8389 0.999997 39.3446 0.999997C55.2349 0.999997 93.7657 0.999997 109.655 0.999997C111.161 0.999997 112.559 1.77841 113.351 3.06044C114.143 4.34118 114.215 5.9402 113.541 7.28742C105.958 22.4543 86.6764 61.0174 78.3862 77.5982Z" fill="#8BC3F5"/>
</svg>