<?xml version="1.0" encoding="UTF-8" standalone="no"?><!DOCTYPE svg PUBLIC "-//W3C//DTD SVG 1.1//EN" "http://www.w3.org/Graphics/SVG/1.1/DTD/svg11.dtd"><svg width="100%" height="100%" viewBox="0 0 800 800" version="1.1" xmlns="http://www.w3.org/2000/svg" xmlns:xlink="http://www.w3.org/1999/xlink" xml:space="preserve" xmlns:serif="http://www.serif.com/" style="fill-rule:evenodd;clip-rule:evenodd;stroke-linejoin:round;stroke-miterlimit:2;"><g id="Logo"><g id="Ring"><circle id="Ring-Background" serif:id="Ring Background" cx="400" cy="400" r="400" style="fill:#1b1b1b;"/><path id="Ring1" serif:id="Ring" d="M400,0c220.766,0 400,179.234 400,400c-0,220.766 -179.234,400 -400,400c-220.766,-0 -400,-179.234 -400,-400c0,-220.766 179.234,-400 400,-400Zm-0,36c200.897,-0 364,163.103 364,364c0,200.897 -163.103,364 -364,364c-200.897,0 -364,-163.103 -364,-364c-0,-200.897 163.103,-364 364,-364Z" style="fill:url(#_Linear1);"/></g></g><defs><linearGradient id="_Linear1" x1="0" y1="0" x2="1" y2="0" gradientUnits="userSpaceOnUse" gradientTransform="matrix(4.89859e-14,800,-800,4.89859e-14,400.001,3.31681e-10)"><stop offset="0" style="stop-color:#f04e98;stop-opacity:1"/><stop offset="0.5" style="stop-color:#5f65d4;stop-opacity:1"/><stop offset="1" style="stop-color:#4e98f0;stop-opacity:1"/></linearGradient></defs></svg>