<svg width="100%" height="100%" viewBox="0 0 256 256" version="1.1" xmlns="http://www.w3.org/2000/svg"
    xmlns:xlink="http://www.w3.org/1999/xlink" xml:space="preserve" xmlns:serif="http://www.serif.com/"
    style="fill-rule:evenodd;clip-rule:evenodd;stroke-linejoin:round;stroke-miterlimit:2;">
    <g transform="matrix(2.75,0,0,2.75,-224,-224)">
        <g id="Shape">
            <g id="V-Shape" serif:id="V Shape" transform="matrix(1,0,0,1,1.01146e-05,-0.0493818)">
                <path
                    d="M173.764,83.287C173.936,82.894 173.899,82.44 173.664,82.08C173.429,81.721 173.028,81.504 172.598,81.504C169.925,81.504 165.262,81.504 163.619,81.504C163.258,81.504 162.932,81.717 162.787,82.048C160.01,88.371 133.856,147.939 128.832,159.381C128.687,159.712 128.361,159.925 128,159.925C127.639,159.925 127.312,159.712 127.167,159.381C122.144,147.939 95.989,88.371 93.213,82.048C93.068,81.717 92.741,81.504 92.381,81.504C90.737,81.504 86.075,81.504 83.402,81.504C82.972,81.504 82.571,81.721 82.336,82.08C82.101,82.44 82.064,82.894 82.236,83.287C87.557,95.432 118.354,165.726 121.906,173.833C122.109,174.296 122.566,174.595 123.072,174.595C125.196,174.595 130.803,174.595 132.928,174.595C133.433,174.595 133.891,174.296 134.094,173.833C137.645,165.727 168.443,95.432 173.764,83.287Z"
                    style="fill:white;" />
            </g>
            <g id="Diamond" transform="matrix(-1.54007,-1.88604e-16,1.88604e-16,-1.54007,327.925,209.689)">
                <path
                    d="M129.203,52.157C129.329,51.938 129.563,51.803 129.816,51.803C130.069,51.803 130.303,51.938 130.429,52.157C133.25,57.043 144.956,77.318 147.777,82.203C147.903,82.422 147.903,82.692 147.777,82.912C147.65,83.131 147.416,83.266 147.163,83.266L112.469,83.266C112.216,83.266 111.982,83.131 111.856,82.912C111.729,82.692 111.729,82.422 111.856,82.203C114.676,77.318 126.382,57.043 129.203,52.157Z"
                    style="fill: #9ED5FF;" />
            </g>
        </g>
    </g>
</svg>