<svg xmlns="http://www.w3.org/2000/svg" viewBox="0 0 149 165" width="149" height="165" fill="none">
    <path d="M 88.61 160.69 L 147.72 8.14 C 149.06 4.67 146.5 0.93 142.78 0.93 L 125.65 0.93 C 123.41 0.93 121.41 2.34 120.66 4.45 L 74.5 134.43 L 28.34 4.45 C 27.59 2.34 25.59 0.93 23.35 0.93 L 6.22 0.93 C 2.5 0.93 -0.06 4.67 1.28 8.14 L 60.39 160.69 C 61.18 162.73 63.14 164.07 65.33 164.07 L 83.68 164.07 C 85.86 164.07 87.82 162.73 88.61 160.69 Z" fill="#ffffff"/>
    <path fill-rule="evenodd" clip-rule="evenodd" d="M 39.29 0.93 C 36.07 0.93 33.98 4.31 35.42 7.19 C 46.03 28.41 59.79 55.94 70.64 77.63 C 72.24 80.82 76.78 80.82 78.38 77.63 C 89.22 55.94 102.99 28.41 113.6 7.19 C 115.04 4.31 112.94 0.93 109.73 0.93 L 39.29 0.93 Z" fill="#8bc3f5"/>
</svg>