<svg xmlns="http://www.w3.org/2000/svg" width="681" height="755" viewBox="0 0 681 755" fill="none">
<path d="M591.66 1.68903C587.084 1.68903 582.996 4.54801 581.426 8.84601L350.612 640.764C347.127 650.307 333.629 650.307 330.144 640.764L99.33 8.84601C97.76 4.54801 93.671 1.68903 89.096 1.68903H11.03C3.35505 1.68903 -1.91401 9.41101 0.883989 16.557L286.962 747.203C288.597 751.378 292.623 754.126 297.108 754.126H383.649C388.133 754.126 392.159 751.378 393.794 747.203L679.872 16.557C682.67 9.41101 677.4 1.68903 669.727 1.68903H591.66Z" fill="url(#paint0_linear_1_3)"/>
<path fill-rule="evenodd" clip-rule="evenodd" d="M362.707 412.04C358.574 420.306 350.125 425.528 340.883 425.528C331.641 425.528 323.192 420.306 319.059 412.04C274.157 322.235 172.201 118.325 131.107 36.137C127.325 28.573 127.73 19.59 132.175 12.397C136.621 5.20297 144.475 0.825012 152.931 0.825012C239.012 0.825012 442.754 0.825012 528.834 0.825012C537.291 0.825012 545.144 5.20297 549.59 12.397C554.036 19.59 554.44 28.573 550.658 36.137C509.564 118.325 407.609 322.235 362.707 412.04Z" fill="url(#paint1_linear_1_3)"/>
<defs>
<linearGradient id="paint0_linear_1_3" x1="340.383" y1="754.13" x2="340.383" y2="1.69306" gradientUnits="userSpaceOnUse">
<stop stop-color="#FFF1CD"/>
<stop offset="1" stop-color="white"/>
</linearGradient>
<linearGradient id="paint1_linear_1_3" x1="337.661" y1="30.234" x2="340.439" y2="413.569" gradientUnits="userSpaceOnUse">
<stop stop-color="#D21DAD"/>
<stop offset="1" stop-color="#F1FF00"/>
</linearGradient>
</defs>
</svg>