<svg width="32" height="24" viewBox="0 0 32 24" fill="none" xmlns="http://www.w3.org/2000/svg">
<path d="M26.3478 2.32318C24.4079 1.43303 22.3275 0.777215 20.1524 0.4016C20.1128 0.394351 20.0732 0.412467 20.0528 0.4487C19.7853 0.924558 19.4889 1.54535 19.2814 2.03329C16.9419 1.68305 14.6144 1.68305 12.3229 2.03329C12.1154 1.53451 11.8082 0.924558 11.5395 0.4487C11.5191 0.413676 11.4795 0.39556 11.4399 0.4016C9.26599 0.776014 7.18566 1.43183 5.24448 2.32318C5.22768 2.33042 5.21327 2.34251 5.20371 2.3582C1.25776 8.25337 0.176798 14.0036 0.707082 19.6826C0.709481 19.7104 0.725077 19.737 0.746673 19.7539C3.3501 21.6658 5.87196 22.8265 8.347 23.5958C8.38661 23.6079 8.42858 23.5934 8.45378 23.5608C9.03925 22.7613 9.56115 21.9182 10.0086 21.0317C10.035 20.9798 10.0098 20.9182 9.95585 20.8976C9.12804 20.5836 8.33979 20.2007 7.58156 19.766C7.52158 19.7309 7.51678 19.6451 7.57196 19.6041C7.73152 19.4845 7.89112 19.3601 8.04348 19.2345C8.07104 19.2116 8.10945 19.2067 8.14186 19.2212C13.1231 21.4955 18.516 21.4955 23.4385 19.2212C23.4709 19.2055 23.5093 19.2104 23.538 19.2333C23.6904 19.3589 23.85 19.4845 24.0108 19.6041C24.0659 19.6451 24.0623 19.7309 24.0024 19.766C23.2441 20.2092 22.4559 20.5836 21.6269 20.8964C21.5729 20.917 21.5489 20.9798 21.5753 21.0317C22.0324 21.917 22.5543 22.76 23.1289 23.5596C23.1529 23.5934 23.1961 23.6079 23.2357 23.5958C25.7228 22.8265 28.2446 21.6658 30.848 19.7539C30.8708 19.737 30.8852 19.7116 30.8876 19.6838C31.5223 13.1183 29.8247 7.41518 26.3874 2.3594C26.379 2.34251 26.3647 2.33042 26.3478 2.32318ZM10.7525 16.2247C9.25279 16.2247 8.01707 14.8479 8.01707 13.157C8.01707 11.4661 9.22882 10.0892 10.7525 10.0892C12.2881 10.0892 13.5119 11.4781 13.4879 13.157C13.4879 14.8479 12.2761 16.2247 10.7525 16.2247ZM20.8662 16.2247C19.3666 16.2247 18.1309 14.8479 18.1309 13.157C18.1309 11.4661 19.3426 10.0892 20.8662 10.0892C22.4019 10.0892 23.6256 11.4781 23.6017 13.157C23.6017 14.8479 22.4019 16.2247 20.8662 16.2247Z" fill="#D0D0D0"/>
</svg>
