<svg width="29" height="29" viewBox="0 0 29 29" fill="none" xmlns="http://www.w3.org/2000/svg">
<path d="M14.3129 0.46875C6.20343 0.46875 0 6.63867 0 14.7656C0 21.2637 4.08105 26.8242 9.91028 28.7813C10.6587 28.916 10.9218 28.4531 10.9218 28.0723C10.9218 27.709 10.9042 25.7051 10.9042 24.4746C10.9042 24.4746 6.81149 25.3535 5.95202 22.7285C5.95202 22.7285 5.28548 21.0234 4.32661 20.584C4.32661 20.584 2.9877 19.6641 4.42016 19.6816C4.42016 19.6816 5.87601 19.7988 6.67702 21.1934C7.95746 23.4551 10.1032 22.8047 10.9393 22.418C11.0738 21.4805 11.4538 20.8301 11.8748 20.4434C8.60645 20.0801 5.30887 19.6055 5.30887 13.9688C5.30887 12.3574 5.75323 11.5488 6.68871 10.5176C6.53669 10.1367 6.03972 8.56641 6.84073 6.53906C8.0627 6.1582 10.875 8.12109 10.875 8.12109C12.0444 7.79297 13.3014 7.62305 14.5468 7.62305C15.7921 7.62305 17.0492 7.79297 18.2185 8.12109C18.2185 8.12109 21.0308 6.15234 22.2528 6.53906C23.0538 8.57227 22.5569 10.1367 22.4048 10.5176C23.3403 11.5547 23.9133 12.3633 23.9133 13.9688C23.9133 19.623 20.4696 20.0742 17.2012 20.4434C17.7391 20.9062 18.1952 21.7852 18.1952 23.1621C18.1952 25.1367 18.1776 27.5801 18.1776 28.0605C18.1776 28.4414 18.4466 28.9043 19.1891 28.7695C25.0359 26.8242 29 21.2637 29 14.7656C29 6.63867 22.4224 0.46875 14.3129 0.46875Z" fill="#D0D0D0"/>
</svg>
