<svg width="407" height="407" viewBox="0 0 407 407" fill="none" xmlns="http://www.w3.org/2000/svg">
<path id="main" d="M406.995 208.739C406.68 200.036 403.885 191.61 398.945 184.479C394.006 177.347 387.133 171.814 379.156 168.545C371.179 165.278 362.437 164.414 353.987 166.059C345.535 167.705 337.735 171.789 331.526 177.82C296.768 153.911 255.911 140.701 213.893 139.789L233.753 43.3202L299.138 57.234C299.916 64.546 303.244 71.338 308.523 76.3912C313.803 81.4443 320.69 84.4276 327.947 84.8055C335.206 85.1833 342.358 82.931 348.123 78.4529C353.887 73.9749 357.885 67.5641 359.4 60.3715C360.915 53.1789 359.847 45.6755 356.388 39.2081C352.928 32.7408 347.303 27.7329 340.525 25.0835C333.746 22.4342 326.254 22.3168 319.399 24.7524C312.541 27.1881 306.766 32.0173 303.11 38.3732L228.253 23.2226C227.029 22.9509 225.763 22.9277 224.53 23.1544C223.298 23.3811 222.12 23.8533 221.069 24.5435C220.018 25.2338 219.112 26.1284 218.405 27.1755C217.696 28.2226 217.202 29.4012 216.948 30.6433L194.339 137.934C151.803 138.583 110.384 151.802 75.1774 175.965C70.4672 171.48 64.8498 168.085 58.7143 166.015C52.5787 163.945 46.0719 163.251 39.6447 163.979C33.2176 164.708 27.0238 166.843 21.4925 170.233C15.9612 173.626 11.2249 178.193 7.61157 183.621C3.99826 189.049 1.59448 195.207 0.566803 201.669C-0.460885 208.13 -0.0879049 214.741 1.65991 221.041C3.4077 227.343 6.48854 233.184 10.6889 238.161C14.8893 243.137 20.1087 247.13 25.9854 249.861C25.6414 254.391 25.6414 258.938 25.9854 263.466C25.9854 332.726 105.731 389 204.115 389C302.5 389 382.245 332.726 382.245 263.466C382.59 258.938 382.59 254.391 382.245 249.861C389.786 246.07 396.111 240.195 400.49 232.919C404.87 225.641 407.124 217.258 406.995 208.739ZM101.454 239.658C101.454 233.543 103.246 227.565 106.603 222.48C109.96 217.395 114.732 213.433 120.315 211.092C125.898 208.753 132.041 208.14 137.969 209.334C143.896 210.527 149.34 213.47 153.614 217.795C157.886 222.12 160.796 227.629 161.975 233.627C163.154 239.625 162.549 245.841 160.236 251.491C157.924 257.141 154.008 261.97 148.982 265.367C143.958 268.764 138.051 270.578 132.008 270.578C127.995 270.578 124.022 269.778 120.315 268.224C116.608 266.671 113.24 264.393 110.403 261.521C107.566 258.651 105.315 255.242 103.78 251.491C102.244 247.74 101.454 243.719 101.454 239.658ZM278.972 324.686C257.296 341.218 230.625 349.632 203.505 348.495C176.385 349.632 149.713 341.218 128.036 324.686C126.737 323.085 126.073 321.052 126.173 318.981C126.274 316.911 127.131 314.953 128.579 313.488C130.028 312.022 131.963 311.154 134.009 311.052C136.054 310.951 138.063 311.623 139.646 312.938C158.016 326.573 180.439 333.445 203.199 332.417C225.987 333.671 248.513 327.017 267.057 313.556C268.678 311.956 270.859 311.074 273.123 311.104C274.244 311.118 275.35 311.356 276.38 311.804C277.41 312.251 278.344 312.899 279.125 313.711C279.908 314.523 280.525 315.483 280.94 316.536C281.357 317.589 281.563 318.716 281.549 319.849C281.535 320.983 281.299 322.103 280.859 323.145C280.416 324.187 279.775 325.132 278.972 325.923V324.686ZM273.474 271.814C267.43 271.814 261.523 270.001 256.499 266.603C251.473 263.207 247.558 258.378 245.245 252.728C242.932 247.078 242.327 240.861 243.506 234.864C244.685 228.865 247.595 223.357 251.868 219.032C256.141 214.707 261.585 211.762 267.512 210.57C273.44 209.377 279.583 209.99 285.166 212.329C290.749 214.669 295.52 218.632 298.877 223.717C302.236 228.802 304.027 234.78 304.027 240.895C304.194 245.085 303.516 249.264 302.035 253.181C300.555 257.097 298.303 260.667 295.416 263.675C292.53 266.683 289.069 269.064 285.244 270.677C281.42 272.288 277.311 273.097 273.168 273.051L273.474 271.814Z" fill="currentColor"/>
</svg>
