<svg width="30" height="28" viewBox="0 0 30 28" fill="none" xmlns="http://www.w3.org/2000/svg">
<path d="M29.6996 14.1953C29.6772 13.5747 29.478 12.9738 29.126 12.4653C28.7741 11.9567 28.2844 11.5621 27.716 11.329C27.1476 11.096 26.5247 11.0344 25.9226 11.1517C25.3204 11.2691 24.7646 11.5603 24.3222 11.9904C21.8456 10.2854 18.9344 9.3434 15.9405 9.27835L17.3556 2.39902L22.0145 3.39123C22.0699 3.91266 22.307 4.39701 22.6832 4.75736C23.0594 5.11771 23.5501 5.33045 24.0672 5.3574C24.5844 5.38434 25.094 5.22373 25.5048 4.90439C25.9155 4.58505 26.2004 4.12789 26.3083 3.61497C26.4163 3.10206 26.3402 2.56698 26.0937 2.10578C25.8472 1.64458 25.4464 1.28746 24.9634 1.09853C24.4804 0.909604 23.9466 0.901232 23.4581 1.07492C22.9695 1.24861 22.558 1.59299 22.2975 2.04624L16.9637 0.965828C16.8765 0.946446 16.7863 0.944792 16.6984 0.960962C16.6106 0.977131 16.5267 1.0108 16.4518 1.06002C16.3769 1.10925 16.3124 1.17304 16.262 1.24771C16.2115 1.32238 16.1763 1.40643 16.1582 1.49501L14.5472 9.14606C11.5164 9.19233 8.56516 10.135 6.05658 11.8581C5.72096 11.5383 5.3207 11.2962 4.88353 11.1486C4.44635 11.001 3.98272 10.9515 3.52476 11.0034C3.06681 11.0554 2.62548 11.2076 2.23136 11.4494C1.83724 11.6913 1.49976 12.017 1.2423 12.4041C0.98484 12.7912 0.813563 13.2303 0.740338 13.6911C0.667112 14.1519 0.693688 14.6233 0.818225 15.0726C0.942761 15.522 1.16228 15.9385 1.46157 16.2934C1.76086 16.6483 2.13276 16.933 2.55149 17.1278C2.52698 17.4508 2.52698 17.7751 2.55149 18.098C2.55149 23.037 8.23365 27.05 15.2438 27.05C22.254 27.05 27.9361 23.037 27.9361 18.098C27.9607 17.7751 27.9607 17.4508 27.9361 17.1278C28.4734 16.8574 28.9241 16.4385 29.2361 15.9196C29.5482 15.4006 29.7088 14.8028 29.6996 14.1953ZM7.92886 16.4002C7.92886 15.9641 8.05654 15.5378 8.29576 15.1752C8.53498 14.8126 8.875 14.53 9.2728 14.3631C9.67061 14.1963 10.1083 14.1526 10.5307 14.2377C10.953 14.3228 11.3409 14.5327 11.6454 14.8411C11.9498 15.1495 12.1572 15.5424 12.2412 15.9701C12.3252 16.3978 12.2821 16.8411 12.1173 17.244C11.9525 17.6469 11.6735 17.9913 11.3154 18.2335C10.9574 18.4758 10.5365 18.6051 10.1059 18.6051C9.82003 18.6051 9.53694 18.5481 9.2728 18.4373C9.00867 18.3265 8.76867 18.1641 8.56651 17.9593C8.36435 17.7546 8.20399 17.5115 8.09458 17.244C7.98517 16.9765 7.92886 16.6898 7.92886 16.4002ZM20.5776 22.4637C19.0331 23.6426 17.1327 24.2426 15.2003 24.1615C13.2679 24.2426 11.3675 23.6426 9.82291 22.4637C9.73034 22.3495 9.68303 22.2045 9.69018 22.0568C9.69734 21.9092 9.75846 21.7696 9.86164 21.6651C9.96483 21.5606 10.1027 21.4987 10.2485 21.4914C10.3942 21.4842 10.5374 21.5321 10.6502 21.6259C11.9591 22.5982 13.5568 23.0883 15.1785 23.015C16.8022 23.1044 18.4073 22.6299 19.7286 21.67C19.8441 21.5559 19.9995 21.493 20.1608 21.4951C20.2407 21.4961 20.3195 21.5131 20.3929 21.545C20.4663 21.5769 20.5328 21.6231 20.5885 21.681C20.6443 21.7389 20.6882 21.8074 20.7178 21.8825C20.7475 21.9576 20.7622 22.0379 20.7612 22.1187C20.7602 22.1996 20.7434 22.2795 20.712 22.3538C20.6805 22.4281 20.6348 22.4955 20.5776 22.5519V22.4637ZM20.1858 18.6933C19.7552 18.6933 19.3343 18.564 18.9763 18.3217C18.6182 18.0795 18.3392 17.7351 18.1744 17.3322C18.0096 16.9293 17.9665 16.486 18.0505 16.0583C18.1345 15.6305 18.3419 15.2377 18.6463 14.9293C18.9508 14.6209 19.3387 14.4109 19.761 14.3259C20.1834 14.2408 20.6211 14.2845 21.0189 14.4513C21.4167 14.6182 21.7567 14.9008 21.9959 15.2634C22.2352 15.626 22.3628 16.0523 22.3628 16.4884C22.3747 16.7872 22.3264 17.0852 22.2209 17.3645C22.1154 17.6438 21.955 17.8984 21.7493 18.1129C21.5436 18.3274 21.297 18.4972 21.0245 18.6122C20.752 18.7271 20.4592 18.7848 20.164 18.7815L20.1858 18.6933Z" fill="#D0D0D0"/>
</svg>
