<svg width="26" height="24" viewBox="0 0 26 24" fill="none" xmlns="http://www.w3.org/2000/svg">
<path d="M0.459237 11.5359L6.45016 13.7719L8.76901 21.2293C8.91738 21.7069 9.50143 21.8835 9.88909 21.5665L13.2285 18.8442C13.5786 18.5589 14.0772 18.5447 14.443 18.8103L20.4662 23.1832C20.8808 23.4846 21.4684 23.2574 21.5724 22.7563L25.9847 1.53242C26.0982 0.98503 25.5603 0.528383 25.0391 0.72997L0.452217 10.2149C-0.154537 10.4489 -0.14925 11.3079 0.459237 11.5359ZM8.3953 12.5816L20.1038 5.37036C20.3142 5.24114 20.5307 5.52567 20.35 5.69328L10.6871 14.6754C10.3475 14.9916 10.1284 15.4147 10.0663 15.8739L9.73716 18.3132C9.69357 18.6389 9.23606 18.6713 9.14618 18.3561L7.88024 13.9079C7.73525 13.4005 7.94654 12.8586 8.3953 12.5816Z" fill="#D0D0D0"/>
</svg>
