<svg width="407" height="407" viewBox="0 0 407 407" fill="none" xmlns="http://www.w3.org/2000/svg">
<path id="main" d="M6.72959 207.193L94.5196 239.986L128.5 349.357C130.674 356.361 139.232 358.951 144.913 354.302L193.848 314.377C198.979 310.192 206.285 309.984 211.645 313.88L299.908 378.013C305.984 382.433 314.595 379.101 316.119 371.752L380.776 60.4812C382.439 52.4531 374.557 45.7559 366.919 48.7124L6.62672 187.819C-2.26456 191.251 -2.18709 203.849 6.72959 207.193ZM123.023 222.529L294.598 116.769C297.681 114.873 300.854 119.046 298.206 121.505L156.607 253.237C151.631 257.874 148.42 264.079 147.51 270.814L142.687 306.589C142.048 311.366 135.344 311.841 134.027 307.218L115.476 241.981C113.351 234.539 116.447 226.592 123.023 222.529Z" fill="currentColor"/>
</svg>
