<svg width="407" height="407" viewBox="0 0 407 407" fill="none" xmlns="http://www.w3.org/2000/svg">
<path d="M7.18882 195.742L100.97 230.708L137.269 347.326C139.591 354.795 148.734 357.556 154.802 352.599L207.077 310.028C212.557 305.567 220.362 305.345 226.088 309.498L320.375 377.881C326.865 382.594 336.063 379.041 337.691 371.205L406.76 39.3082C408.537 30.7482 400.117 23.6072 391.958 26.7596L7.07894 175.084C-2.4191 178.743 -2.33634 192.176 7.18882 195.742ZM131.419 212.094L314.702 99.3256C317.995 97.3048 321.384 101.754 318.556 104.375L167.294 244.837C161.978 249.782 158.548 256.398 157.576 263.579L152.424 301.724C151.742 306.818 144.58 307.324 143.173 302.395L123.356 232.835C121.086 224.9 124.394 216.426 131.419 212.094Z" fill="#D0D0D0"/>
</svg>
